<?xml version="1.0" encoding="UTF-8"?>
<svg width="822px" height="767px" viewBox="0 0 822 767" version="1.1" xmlns="http://www.w3.org/2000/svg" xmlns:xlink="http://www.w3.org/1999/xlink">
    <!-- Generator: Sketch 52.3 (67297) - http://www.bohemiancoding.com/sketch -->
    <title>Artboard</title>
    <desc>Created with Sketch.</desc>
    <g id="Artboard" stroke="none" stroke-width="1" fill="none" fill-rule="evenodd" transform="translate(0.218750, 0.050000)">
        <path d="M99.8165868,657.648493 C99.5290462,655.463184 98.6808141,653.694836 97.2718649,652.343395 C95.8629158,650.991954 93.5482484,650.316244 90.3277932,650.316244 C88.4875332,650.316244 86.9060834,650.661287 85.5833964,651.351385 C84.2607095,652.041482 83.1393178,652.975975 82.2191878,654.154892 C81.2990578,655.333808 80.6233474,656.685229 80.1920364,658.209195 C79.7607255,659.73316 79.5450732,661.35774 79.5450732,663.082984 C79.5450732,664.808228 79.7607255,666.447185 80.1920364,667.999904 C80.6233474,669.552624 81.2990578,670.904045 82.2191878,672.054207 C83.1393178,673.20437 84.3182168,674.124486 85.75592,674.814583 C87.1936232,675.504681 88.9188411,675.849725 90.9316256,675.849725 C93.6920157,675.849725 95.7191468,675.274652 97.0130796,674.124489 C98.3070125,672.974327 99.2702592,671.392877 99.9028486,669.380093 L109.30538,669.380093 C108.960332,671.450385 108.327752,673.391255 107.407622,675.202761 C106.487492,677.014267 105.236709,678.595717 103.655235,679.947158 C102.073762,681.298599 100.176022,682.348107 97.961959,683.095712 C95.7478961,683.843318 93.174446,684.217115 90.2415315,684.217115 C86.9635682,684.217115 84.0738282,683.627666 81.5722246,682.448749 C79.0706211,681.269833 76.9716059,679.70276 75.2751161,677.747483 C73.5786264,675.792207 72.2990897,673.549424 71.4364678,671.019066 C70.5738459,668.488708 70.1425414,665.843374 70.1425414,663.082984 C70.1425414,660.380102 70.5738459,657.749145 71.4364678,655.190033 C72.2990897,652.630921 73.5786264,650.373761 75.2751161,648.418485 C76.9716059,646.463208 79.0562442,644.896136 81.5290937,643.717219 C84.0019432,642.538302 86.8773065,641.948853 90.1552697,641.948853 C93.433233,641.948853 96.2367122,642.408911 98.5657913,643.329041 C100.89487,644.249171 102.821364,645.442447 104.345329,646.908904 C105.869295,648.375361 107.01944,650.043072 107.7958,651.912086 C108.572159,653.7811 109.046594,655.693217 109.219119,657.648493 L99.8165868,657.648493 Z M137.167929,684.217115 C133.947474,684.217115 131.043357,683.656419 128.455491,682.535011 C125.867625,681.413602 123.653596,679.875283 121.813336,677.920007 C119.973076,675.96473 118.549771,673.721947 117.543379,671.191589 C116.536986,668.661232 116.033798,665.95839 116.033798,663.082984 C116.033798,660.265086 116.536986,657.576621 117.543379,655.017509 C118.549771,652.458398 119.973076,650.201238 121.813336,648.245961 C123.653596,646.290685 125.867625,644.752366 128.455491,643.630957 C131.043357,642.509549 133.947474,641.948853 137.167929,641.948853 C140.388384,641.948853 143.306878,642.509549 145.923498,643.630957 C148.540117,644.752366 150.782901,646.290685 152.651915,648.245961 C154.520929,650.201238 155.958611,652.458398 156.965003,655.017509 C157.971395,657.576621 158.474584,660.265086 158.474584,663.082984 C158.474584,665.95839 157.971395,668.661232 156.965003,671.191589 C155.958611,673.721947 154.520929,675.96473 152.651915,677.920007 C150.782901,679.875283 148.540117,681.413602 145.923498,682.535011 C143.306878,683.656419 140.388384,684.217115 137.167929,684.217115 Z M137.167929,675.849725 C138.950681,675.849725 140.575261,675.504681 142.041718,674.814583 C143.508176,674.124486 144.758959,673.20437 145.794105,672.054207 C146.829251,670.904045 147.634353,669.552624 148.209434,667.999904 C148.784515,666.447185 149.072052,664.808228 149.072052,663.082984 C149.072052,661.35774 148.784515,659.718783 148.209434,658.166064 C147.634353,656.613344 146.829251,655.261924 145.794105,654.111761 C144.758959,652.961598 143.508176,652.041482 142.041718,651.351385 C140.575261,650.661287 138.950681,650.316244 137.167929,650.316244 C135.385177,650.316244 133.774974,650.661287 132.33727,651.351385 C130.899567,652.041482 129.663161,652.961598 128.628015,654.111761 C127.592868,655.261924 126.802143,656.613344 126.255816,658.166064 C125.709489,659.718783 125.43633,661.35774 125.43633,663.082984 C125.43633,664.808228 125.709489,666.447185 126.255816,667.999904 C126.802143,669.552624 127.592868,670.904045 128.628015,672.054207 C129.663161,673.20437 130.899567,674.124486 132.33727,674.814583 C133.774974,675.504681 135.385177,675.849725 137.167929,675.849725 Z M168.049639,642.983994 L177.452171,642.983994 L177.452171,648.591008 C178.71735,646.4057 180.471321,644.752366 182.714138,643.630957 C184.956955,642.509549 187.573536,641.948853 190.563958,641.948853 C193.496873,641.948853 195.955308,642.437665 197.939339,643.415303 C199.923369,644.392941 201.490442,645.715608 202.640605,647.383344 C203.618243,648.878555 204.293953,650.546266 204.667756,652.386526 C205.041559,654.226786 205.228458,656.527076 205.228458,659.287467 L205.228458,683.181974 L195.825926,683.181974 L195.825926,662.39289 C195.825926,660.667646 195.682158,659.057443 195.394617,657.562231 C195.107076,656.06702 194.632641,654.787483 193.971298,653.723583 C193.309954,652.659683 192.418592,651.811451 191.297183,651.178861 C190.175775,650.546272 188.781224,650.229982 187.113488,650.229982 C183.835525,650.229982 181.405843,651.394504 179.824369,653.723583 C178.242896,656.052662 177.452171,658.942402 177.452171,662.39289 L177.452171,683.181974 L168.049639,683.181974 L168.049639,642.983994 Z M240.682041,631.252395 C240.049452,631.07987 239.388118,630.936102 238.69802,630.821086 C238.007923,630.70607 237.289082,630.648562 236.541476,630.648562 C235.793871,630.648562 235.046276,630.677316 234.298671,630.734824 C233.551065,630.792332 232.875355,631.022361 232.271519,631.424918 C231.667684,631.827475 231.164495,632.460055 230.761939,633.322677 C230.359382,634.185299 230.158106,635.392951 230.158106,636.945671 L230.158106,642.983994 L240.682041,642.983994 L240.682041,650.833814 L230.158106,650.833814 L230.158106,683.181974 L220.755574,683.181974 L220.755574,650.833814 L212.560707,650.833814 L212.560707,642.983994 L220.755574,642.983994 L220.755574,637.980812 C220.755574,634.127767 221.287517,631.151766 222.351417,629.05272 C223.415317,626.953673 224.709231,625.400977 226.233196,624.394585 C227.757162,623.388192 229.352988,622.784366 231.020724,622.583088 C232.68846,622.381809 234.097387,622.281172 235.24755,622.281172 C236.455221,622.281172 237.533482,622.381809 238.482366,622.583088 C239.43125,622.784366 240.164468,623.028772 240.682041,623.316313 L240.682041,631.252395 Z M252.603444,669.861974 C252.603444,665.781954 254.01343,662.331988 256.833444,659.511974 C259.653458,656.69196 263.043424,655.281974 267.003444,655.281974 C271.083464,655.281974 274.53343,656.69196 277.353444,659.511974 C280.173458,662.331988 281.583444,665.781954 281.583444,669.861974 C281.583444,673.821994 280.173458,677.21196 277.353444,680.031974 C274.53343,682.851988 271.083464,684.261974 267.003444,684.261974 C263.043424,684.261974 259.653458,682.851988 256.833444,680.031974 C254.01343,677.21196 252.603444,673.821994 252.603444,669.861974 Z M308.600655,631.683703 L308.600655,648.763532 L333.530303,648.763532 L333.530303,657.648493 L308.600655,657.648493 L308.600655,674.297013 L333.530303,674.297013 L333.530303,683.181974 L298.680552,683.181974 L298.680552,622.798742 L333.530303,622.798742 L333.530303,631.683703 L308.600655,631.683703 Z M345.261903,622.798742 L355.182005,622.798742 L355.182005,662.996722 C355.182005,664.721966 355.455165,666.360923 356.001492,667.913643 C356.547819,669.466362 357.338544,670.817783 358.37369,671.967945 C359.408837,673.118108 360.645243,674.038224 362.082946,674.728322 C363.520649,675.418419 365.130852,675.763463 366.913604,675.763463 C368.696356,675.763463 370.320937,675.418419 371.787394,674.728322 C373.253851,674.038224 374.504634,673.118108 375.53978,671.967945 C376.574927,670.817783 377.380028,669.466362 377.95511,667.913643 C378.530191,666.360923 378.817727,664.721966 378.817727,662.996722 L378.817727,622.798742 L388.73783,622.798742 L388.73783,662.996722 C388.73783,665.929637 388.220264,668.704362 387.185118,671.320982 C386.149972,673.937602 384.683536,676.237893 382.785768,678.221923 C380.888,680.205953 378.602086,681.773026 375.927958,682.923189 C373.25383,684.073351 370.249076,684.648424 366.913604,684.648424 C363.635641,684.648424 360.674017,684.073351 358.028643,682.923189 C355.383269,681.773026 353.111732,680.205953 351.213964,678.221923 C349.316196,676.237893 347.849761,673.937602 346.814614,671.320982 C345.779468,668.704362 345.261903,665.929637 345.261903,662.996722 L345.261903,622.798742 Z" id="conf.EU" fill="#111111" transform="translate(229.440186, 653.464798) rotate(-360.000000) translate(-229.440186, -653.464798) "></path>
        <polygon id="Path" stroke="#111111" stroke-width="10" fill="#FCD9E3" points="245.805135 16 783.891267 405.725951 783.891267 726.010224 439.158023 726.010224 439.158023 578.793865 245.805135 578.793865 245.805135 405.725951 15 405.725951 15 227.790244"></polygon>
        <path d="M227.559476,317.900792 C225.712332,325.751153 222.556842,333.062654 218.092911,339.835515 C213.62898,346.608376 208.087632,352.53454 201.4687,357.614185 C194.849768,362.693831 187.230414,366.657434 178.610409,369.505114 C169.990405,372.352794 160.754824,373.776613 150.90339,373.776613 C137.665526,373.776613 125.813198,371.467718 115.34605,366.849858 C104.878901,362.231999 95.9896551,356.036463 88.6780441,348.263067 C81.3664332,340.48967 75.7481217,331.484979 71.822941,321.248723 C67.8977604,311.012468 65.9351995,300.199142 65.9351995,288.808422 C65.9351995,277.879488 67.8207972,267.335533 71.5920492,257.176242 C75.3633012,247.016951 80.8276863,238.01226 87.9853686,230.161899 C95.1430509,222.311538 103.762926,216.039039 113.845253,211.344215 C123.92758,206.649392 135.35661,204.302015 148.132689,204.302015 C160.139123,204.302015 170.798523,205.956723 180.111206,209.266189 C189.423889,212.575655 197.389578,217.039519 204.00851,222.657915 C210.627442,228.276311 215.899419,234.895143 219.8246,242.514612 C223.74978,250.13408 226.328046,258.330658 227.559476,267.104591 L199.621565,267.104591 C198.697993,261.563159 196.889359,256.406627 194.195607,251.634839 C191.501856,246.86305 188.115476,242.745521 184.036367,239.282126 C179.957258,235.818731 175.185541,233.086539 169.721074,231.085466 C164.256607,229.084394 158.214998,228.083873 151.596066,228.083873 C142.360347,228.083873 134.086806,229.777062 126.775195,233.163493 C119.463584,236.549923 113.345012,241.052269 108.419295,246.670664 C103.493578,252.28906 99.7223827,258.753967 97.1055957,266.065578 C94.4888086,273.377189 93.1804347,280.958061 93.1804347,288.808422 C93.1804347,297.120569 94.5272902,304.970813 97.2210416,312.359388 C99.914793,319.747963 103.839915,326.251351 108.996525,331.869747 C114.153134,337.488143 120.541078,341.913525 128.160546,345.146027 C135.780014,348.378529 144.515334,349.994755 154.366768,349.994755 C158.984627,349.994755 163.640899,349.186642 168.335723,347.570391 C173.030547,345.95414 177.378966,343.722208 181.381111,340.874528 C185.383256,338.026848 188.88508,334.640469 191.886689,330.715288 C194.888298,326.790107 197.081748,322.518651 198.467106,317.900792 L227.559476,317.900792 Z" id="C" fill="#111111" transform="translate(146.747338, 289.039314) rotate(-360.000000) translate(-146.747338, -289.039314) "></path>
        <path d="M343.463258,475.383836 C343.463258,486.573539 346.544434,495.168399 352.70688,501.168674 C358.869325,507.16895 366.815516,510.169043 376.545693,510.169043 C380.437763,510.169043 384.086525,509.560916 387.492087,508.344644 C390.897649,507.128372 393.857199,505.425616 396.370828,503.236327 C398.884457,501.047037 400.871005,498.41182 402.330532,495.330598 C403.790058,492.249375 404.519811,488.762781 404.519811,484.87071 C404.519811,480.492131 403.668433,476.843369 401.965652,473.924316 C400.262871,471.005263 398.073614,468.532214 395.397816,466.505094 C392.722017,464.477974 389.803008,462.775218 386.640701,461.396777 C383.478393,460.018335 380.437759,458.842623 377.518706,457.869605 C369.734564,455.112722 362.437042,452.315338 355.625918,449.47737 C348.814794,446.639402 342.855151,443.233891 337.746808,439.260736 C332.638465,435.28758 328.624828,430.463107 325.705775,424.787171 C322.786722,419.111234 321.327217,411.975879 321.327217,403.380889 C321.327217,396.407596 322.74618,390.042534 325.584148,384.285513 C328.422116,378.528492 332.233045,373.582393 337.017048,369.447068 C341.801052,365.311743 347.395819,362.149483 353.801519,359.960194 C360.207219,357.770904 366.977698,356.676276 374.113161,356.676276 C381.735133,356.676276 388.870488,357.973613 395.519442,360.568327 C402.168396,363.16304 407.925331,366.811802 412.790419,371.514721 C417.655507,376.217639 421.466436,381.812407 424.223319,388.299191 C426.980203,394.785975 428.358624,402.002415 428.358624,409.948726 L400.384506,409.948726 C400.384506,401.515906 398.114166,394.704885 393.573417,389.515457 C389.032668,384.32603 382.789231,381.731355 374.842921,381.731355 C367.869627,381.731355 361.869442,383.515194 356.842184,387.082925 C351.814926,390.650656 349.301335,396.083257 349.301335,403.380889 C349.301335,406.786451 349.990545,409.827086 351.368987,412.502884 C352.747429,415.178683 354.612351,417.489565 356.963811,419.4356 C359.31527,421.381636 361.950486,423.084391 364.869539,424.543917 C367.788592,426.003444 370.869769,427.300781 374.113161,428.435969 C380.762115,430.868513 387.532594,433.463187 394.424803,436.220071 C401.317011,438.976954 407.600989,442.382465 413.276926,446.436705 C418.952862,450.490945 423.574626,455.355961 427.142358,461.031897 C430.710089,466.707833 432.493928,473.599938 432.493928,481.708419 C432.493928,490.465577 430.95334,498.168518 427.872117,504.817472 C424.790895,511.466426 420.574548,517.061194 415.222951,521.601943 C409.871354,526.142692 403.66846,529.548203 396.614082,531.818577 C389.559704,534.088952 382.059472,535.224122 374.113161,535.224122 C366.32902,535.224122 358.909871,533.886243 351.855493,531.210444 C344.801115,528.534646 338.598221,524.642633 333.246624,519.534291 C327.895027,514.425948 323.597597,508.182512 320.354204,500.803795 C317.110812,493.425077 315.489141,484.951842 315.489141,475.383836 L343.463258,475.383836 Z" id="S" fill="#111111" transform="translate(373.991534, 445.950199) rotate(-360.000000) translate(-373.991534, -445.950199) "></path>
        <path d="M553.641475,624.243662 C553.641475,635.433365 556.722651,644.028226 562.885096,650.028501 C569.047541,656.028777 576.993733,659.028869 586.72391,659.028869 C590.61598,659.028869 594.264742,658.420743 597.670303,657.20447 C601.075865,655.988198 604.035416,654.285443 606.549045,652.096153 C609.062674,649.906864 611.049222,647.271647 612.508748,644.190424 C613.968275,641.109202 614.698027,637.622608 614.698027,633.730537 C614.698027,629.351958 613.84665,625.703196 612.143869,622.784143 C610.441088,619.86509 608.251831,617.392041 605.576032,615.364921 C602.900234,613.337801 599.981225,611.635045 596.818917,610.256604 C593.65661,608.878162 590.615975,607.70245 587.696922,606.729432 C579.912781,603.972549 572.615258,601.175165 565.804135,598.337197 C558.993011,595.499229 553.033367,592.093718 547.925025,588.120563 C542.816682,584.147407 538.803044,579.322934 535.883991,573.646997 C532.964938,567.971061 531.505434,560.835705 531.505434,552.240716 C531.505434,545.267423 532.924397,538.902361 535.762365,533.14534 C538.600333,527.388319 542.411262,522.44222 547.195265,518.306895 C551.979269,514.17157 557.574036,511.00931 563.979736,508.82002 C570.385435,506.630731 577.155915,505.536102 584.291378,505.536102 C591.913349,505.536102 599.048705,506.83344 605.697659,509.428153 C612.346613,512.022867 618.103548,515.671629 622.968636,520.374547 C627.833724,525.077466 631.644653,530.672234 634.401536,537.159018 C637.158419,543.645802 638.53684,550.862242 638.53684,558.808552 L610.562723,558.808552 C610.562723,550.375733 608.292382,543.564711 603.751633,538.375284 C599.210884,533.185856 592.967448,530.591182 585.021137,530.591182 C578.047844,530.591182 572.047658,532.375021 567.020401,535.942752 C561.993143,539.510483 559.479552,544.943084 559.479552,552.240716 C559.479552,555.646278 560.168762,558.686912 561.547204,561.362711 C562.925645,564.03851 564.790568,566.349392 567.142027,568.295427 C569.493487,570.241462 572.128703,571.944218 575.047756,573.403744 C577.966809,574.863271 581.047985,576.160608 584.291378,577.295795 C590.940332,579.728339 597.710811,582.323014 604.60302,585.079898 C611.495228,587.836781 617.779206,591.242292 623.455142,595.296532 C629.131079,599.350772 633.752843,604.215787 637.320574,609.891724 C640.888306,615.56766 642.672145,622.459765 642.672145,630.568245 C642.672145,639.325404 641.131557,647.028345 638.050334,653.677299 C634.969111,660.326253 630.752765,665.921021 625.401168,670.46177 C620.049571,675.002519 613.846676,678.408029 606.792298,680.678404 C599.73792,682.948778 592.237688,684.083949 584.291378,684.083949 C576.507236,684.083949 569.088088,682.74607 562.03371,680.070271 C554.979332,677.394472 548.776438,673.50246 543.424841,668.394118 C538.073243,663.285775 533.775813,657.042339 530.532421,649.663621 C527.289029,642.284904 525.667357,633.811669 525.667357,624.243662 L553.641475,624.243662 Z" id="S" fill="#111111"></path>
    </g>
</svg>