<svg width="430" height="267" xmlns="http://www.w3.org/2000/svg"><path d="M89.748 237.786H79.703c-.553-4.7-3.318-7.834-10.138-7.834-7.741 0-11.52 6.359-11.52 13.64 0 7.372 3.503 13.64 12.166 13.64 5.898 0 8.294-2.581 9.584-6.913h10.046c-1.383 8.94-7.926 15.852-20.368 15.852C55.465 266.17 48 255.296 48 243.59c0-11.611 7.465-22.579 21.381-22.579 14.008 0 19.722 8.48 20.367 16.774zm31.396 28.385c-13.64 0-22.579-10.414-22.579-22.58 0-12.164 8.94-22.579 22.58-22.579 13.823 0 22.763 10.415 22.763 22.58s-8.94 22.579-22.764 22.579zm0-8.94c7.742 0 12.718-6.267 12.718-13.64 0-7.372-4.976-13.639-12.718-13.639-7.557 0-12.533 6.267-12.533 13.64 0 7.372 4.976 13.64 12.533 13.64zm34.53 7.834v-42.947h10.045v5.99c2.673-4.607 7.65-7.096 14.008-7.096 6.175 0 10.507 2.212 12.903 5.807 2.12 3.225 2.765 6.82 2.765 12.718v25.528h-10.046v-22.21c0-7.373-2.12-12.995-9.308-12.995-7.004 0-10.322 5.622-10.322 12.994v22.211h-10.045zm79.134-63.96v8.48c-1.382-.369-2.857-.645-4.423-.645-3.134 0-6.82 0-6.82 6.727v6.451h11.243v8.387h-11.243v34.56h-10.046v-34.56h-8.755v-8.387h8.755v-5.345c0-16.404 10.507-16.773 15.483-16.773 2.58 0 4.7.553 5.806 1.106zm8.264 57.14c0-4.147 3.318-7.465 7.373-7.465a7.434 7.434 0 0 1 7.465 7.465c0 4.055-3.318 7.373-7.465 7.373-4.055 0-7.373-3.318-7.373-7.373zm65.864-48.2H282.3v18.248h26.635v9.493H282.3v17.786h26.635v9.493h-37.233v-64.512h37.233v9.492zm14.07 33.455v-42.947h10.598V243.5c0 7.372 4.976 13.64 12.534 13.64 7.741 0 12.718-6.268 12.718-13.64v-42.947h10.598V243.5c0 12.533-9.124 23.132-23.316 23.132-13.917 0-23.133-10.599-23.133-23.132zM161.28 113.357c-1.843 7.833-4.992 15.13-9.446 21.888-4.455 6.758-9.984 12.672-16.59 17.74-6.604 5.07-14.207 9.025-22.809 11.866-8.601 2.842-17.817 4.263-27.648 4.263-13.21 0-25.037-2.304-35.481-6.912-10.445-4.608-19.316-10.79-26.612-18.548-7.296-7.756-12.902-16.742-16.819-26.956C1.958 106.483 0 95.693 0 84.326 0 73.421 1.882 62.9 5.645 52.762c3.763-10.138 9.216-19.124 16.358-26.957 7.143-7.834 15.744-14.093 25.805-18.778C57.868 2.342 69.274 0 82.022 0c11.981 0 22.618 1.651 31.91 4.954 9.294 3.302 17.242 7.756 23.847 13.363 6.605 5.606 11.866 12.211 15.783 19.814 3.916 7.603 6.49 15.783 7.718 24.538h-27.878c-.922-5.53-2.727-10.675-5.415-15.437-2.688-4.762-6.067-8.87-10.137-12.326-4.07-3.456-8.832-6.183-14.285-8.18-5.453-1.996-11.482-2.995-18.087-2.995-9.216 0-17.472 1.69-24.768 5.069-7.296 3.38-13.401 7.872-18.316 13.478-4.916 5.607-8.679 12.058-11.29 19.354-2.611 7.296-3.917 14.86-3.917 22.694 0 8.295 1.344 16.128 4.032 23.501 2.688 7.373 6.605 13.863 11.75 19.469 5.146 5.606 11.52 10.022 19.124 13.248 7.603 3.226 16.32 4.838 26.15 4.838 4.608 0 9.255-.806 13.94-2.419a50.92 50.92 0 0 0 13.017-6.681 48.599 48.599 0 0 0 10.483-10.138c2.995-3.917 5.184-8.18 6.567-12.787h29.03zm48.538-.922c0 10.599 2.918 18.74 8.755 24.423 5.837 5.683 13.363 8.524 22.579 8.524 3.686 0 7.142-.576 10.368-1.728 3.226-1.152 6.029-2.764 8.41-4.838 2.38-2.074 4.262-4.57 5.644-7.488 1.383-2.918 2.074-6.22 2.074-9.907 0-4.147-.806-7.603-2.42-10.368a23.722 23.722 0 0 0-6.22-7.027 40.43 40.43 0 0 0-8.294-4.839 103.954 103.954 0 0 0-8.64-3.34c-7.373-2.612-14.285-5.261-20.736-7.95-6.452-2.687-12.096-5.913-16.935-9.676-4.838-3.763-8.64-8.333-11.405-13.709-2.764-5.376-4.147-12.134-4.147-20.275 0-6.605 1.344-12.634 4.032-18.087 2.688-5.452 6.298-10.137 10.829-14.054 4.531-3.917 9.83-6.912 15.898-8.986C225.677 1.037 232.09 0 238.848 0c7.22 0 13.978 1.229 20.275 3.686 6.298 2.458 11.75 5.914 16.359 10.368 4.608 4.455 8.217 9.754 10.828 15.898 2.612 6.144 3.917 12.98 3.917 20.506h-26.496c0-7.988-2.15-14.439-6.451-19.354-4.3-4.915-10.214-7.373-17.74-7.373-6.606 0-12.289 1.69-17.05 5.069-4.762 3.38-7.143 8.525-7.143 15.437 0 3.225.653 6.105 1.959 8.64a20.83 20.83 0 0 0 5.299 6.566c2.227 1.843 4.723 3.456 7.488 4.839a74.828 74.828 0 0 0 8.755 3.686 692.145 692.145 0 0 1 19.238 7.373c6.528 2.611 12.48 5.837 17.856 9.677 5.376 3.84 9.754 8.448 13.133 13.824 3.38 5.376 5.069 11.904 5.069 19.584 0 8.294-1.46 15.59-4.378 21.888-2.918 6.297-6.912 11.596-11.98 15.897-5.07 4.301-10.944 7.527-17.626 9.677-6.682 2.15-13.786 3.226-21.312 3.226-7.373 0-14.4-1.268-21.082-3.802-6.681-2.534-12.556-6.22-17.625-11.06-5.069-4.838-9.14-10.751-12.211-17.74-3.072-6.989-4.608-15.014-4.608-24.077h26.496zm134.937 0c0 10.599 2.919 18.74 8.755 24.423 5.837 5.683 13.364 8.524 22.58 8.524 3.686 0 7.142-.576 10.368-1.728 3.225-1.152 6.028-2.764 8.41-4.838 2.38-2.074 4.262-4.57 5.644-7.488 1.382-2.918 2.074-6.22 2.074-9.907 0-4.147-.807-7.603-2.42-10.368a23.722 23.722 0 0 0-6.22-7.027 40.43 40.43 0 0 0-8.295-4.839 103.954 103.954 0 0 0-8.64-3.34c-7.373-2.612-14.285-5.261-20.736-7.95-6.451-2.687-12.096-5.913-16.934-9.676-4.839-3.763-8.64-8.333-11.405-13.709-2.765-5.376-4.147-12.134-4.147-20.275 0-6.605 1.344-12.634 4.032-18.087 2.688-5.452 6.297-10.137 10.829-14.054 4.53-3.917 9.83-6.912 15.897-8.986C360.614 1.037 367.027 0 373.786 0c7.219 0 13.977 1.229 20.275 3.686 6.297 2.458 11.75 5.914 16.358 10.368 4.608 4.455 8.218 9.754 10.829 15.898 2.611 6.144 3.917 12.98 3.917 20.506h-26.496c0-7.988-2.15-14.439-6.451-19.354-4.301-4.915-10.215-7.373-17.741-7.373-6.605 0-12.288 1.69-17.05 5.069-4.761 3.38-7.142 8.525-7.142 15.437 0 3.225.653 6.105 1.958 8.64a20.83 20.83 0 0 0 5.3 6.566c2.227 1.843 4.723 3.456 7.487 4.839a74.828 74.828 0 0 0 8.756 3.686 692.143 692.143 0 0 1 19.238 7.373c6.528 2.611 12.48 5.837 17.856 9.677 5.376 3.84 9.754 8.448 13.133 13.824 3.379 5.376 5.069 11.904 5.069 19.584 0 8.294-1.46 15.59-4.378 21.888-2.918 6.297-6.912 11.596-11.98 15.897-5.07 4.301-10.945 7.527-17.626 9.677-6.682 2.15-13.786 3.226-21.312 3.226-7.373 0-14.4-1.268-21.082-3.802s-12.557-6.22-17.626-11.06c-5.068-4.838-9.139-10.751-12.21-17.74-3.073-6.989-4.609-15.014-4.609-24.077h26.496z" fill="#191919"/></svg>