<svg width="1400" height="826" xmlns="http://www.w3.org/2000/svg"><g transform="translate(-1325 -85)" fill="none" fill-rule="evenodd"><path fill="#544EBF" d="M2202 1498H0L1101 78.965z"/><path fill="#FA99B4" d="M2943.485 1069.795h619.574v-382.97z"/><ellipse fill="#42CDB2" cx="1789" cy="657.572" rx="189" ry="188.872"/><ellipse fill="#42CDB2" cx="2724.5" cy="192.464" rx="52.5" ry="52.464"/><ellipse fill="#FA99B4" cx="1394" cy="171.902" rx="117" ry="116.92"/><path fill="#EA3A3A" d="M1305.172 364.144h506.806V50.878z"/><path d="M2086.5 576.627c-151.602 0-274.5-122.815-274.5-274.314C1812 150.814 1934.898 28 2086.5 28S2361 150.814 2361 302.313c0 151.5-122.898 274.314-274.5 274.314zm-.5-115.921c87.813 0 159-71.139 159-158.892 0-87.754-71.187-158.892-159-158.892s-159 71.138-159 158.892c0 87.753 71.187 158.892 159 158.892zM2518 469v619.996h382.97z" fill="#FA99B4"/><path fill="#42CDB2" d="M2518.25 824.055V631H2399z"/><path fill="#544EBF" d="M2295 439.72h630v191.869h-630zM2223 0h47v158.032h-47z"/><path d="M2573 83h-205v126.3zm0 131.658h-205v126.3zm0 126.671h-205v126.3z" fill="#EA3A3A"/></g></svg>