<?xml version="1.0" encoding="UTF-8"?>
<svg width="1205px" height="463px" viewBox="0 0 1205 463" version="1.1" xmlns="http://www.w3.org/2000/svg" xmlns:xlink="http://www.w3.org/1999/xlink">
    <!-- Generator: Sketch 52.5 (67469) - http://www.bohemiancoding.com/sketch -->
    <title>banner</title>
    <desc>Created with Sketch.</desc>
    <defs>
        <path d="M690.051493,169.871936 C691.446989,107.198757 742.689074,56.8219418 805.697295,56.8219418 C868.705516,56.8219418 919.947602,107.198757 921.343098,169.871936 L690.051493,169.871942 Z" id="path-1"></path>
        <path d="M1062.52137,321.87026 C1062.90414,304.679902 1076.95911,290.86226 1094.24137,290.86226 C1111.52362,290.86226 1125.57859,304.679902 1125.96136,321.87026 L1062.52137,321.87026 Z" id="path-3"></path>
        <path d="M896.275749,416.083253 C898.727938,374.861859 928.730482,342.293991 965.38147,342.293991 C1002.03246,342.293991 1032.035,374.861859 1034.48719,416.083253 L896.275749,416.083253 Z" id="path-5"></path>
    </defs>
    <g id="Page-1" stroke="none" stroke-width="1" fill="none" fill-rule="evenodd">
        <g id="CSSconf2019-landingpage" transform="translate(-84.000000, -166.000000)">
            <g id="banner" transform="translate(84.000000, 166.000000)">
                <polygon id="/" fill="#1D1D1D" points="30.3900174 52.5787871 38.4890051 56.0613518 9.00869009 124.578787 0.909702466 121.096222"></polygon>
                <polygon id="Path" stroke="#111111" stroke-width="9" fill="#FFFFFF" points="493.675124 77.1495758 781.935552 285.931335 781.935552 457.512196 597.257028 457.512196 597.257028 378.646289 493.675124 378.646289 493.675124 285.931335 370.029516 285.931335 370.029516 190.608635"></polygon>
                <path d="M483.900664,238.882143 C482.911122,243.087694 481.220681,247.004569 478.82929,250.632887 C476.437898,254.261206 473.469319,257.435936 469.923462,260.157175 C466.377606,262.878414 462.295809,265.001773 457.67795,266.527316 C453.06009,268.052859 448.112458,268.815619 442.834904,268.815619 C435.743191,268.815619 429.393729,267.57871 423.786328,265.104857 C418.178928,262.631004 413.416831,259.311967 409.499897,255.147647 C405.582962,250.983327 402.573153,246.159386 400.470377,240.675678 C398.367602,235.191969 397.31623,229.399116 397.31623,223.296945 C397.31623,217.442159 398.326372,211.793612 400.346685,206.351134 C402.366999,200.908657 405.294348,196.084715 409.128821,191.879165 C412.963293,187.673614 417.581084,184.313347 422.98233,181.798263 C428.383577,179.283179 434.506272,178.025655 441.350599,178.025655 C447.782618,178.025655 453.49301,178.912106 458.481948,180.685034 C463.470885,182.457963 467.738218,184.849318 471.284075,187.859173 C474.829931,190.869028 477.654205,194.414831 479.75698,198.496689 C481.859755,202.578547 483.24097,206.969571 483.900664,211.669892 L468.933926,211.669892 C468.439155,208.701268 467.470244,205.93884 466.027163,203.382525 C464.584082,200.82621 462.76995,198.620391 460.584713,196.765001 C458.399476,194.909611 455.843199,193.445936 452.915806,192.373933 C449.988413,191.30193 446.751836,190.765936 443.20598,190.765936 C438.258273,190.765936 433.826019,191.673002 429.909085,193.487161 C425.99215,195.30132 422.714344,197.713291 420.075567,200.723146 C417.43679,203.733001 415.416507,207.196344 414.014657,211.113278 C412.612806,215.030213 411.911892,219.091394 411.911892,223.296945 C411.911892,227.749881 412.633422,231.955368 414.076503,235.913534 C415.519584,239.871699 417.622328,243.355657 420.384797,246.365512 C423.147267,249.375367 426.569379,251.746107 430.651237,253.477805 C434.733095,255.209502 439.412731,256.075338 444.690285,256.075338 C447.164138,256.075338 449.658569,255.64242 452.173653,254.776571 C454.688738,253.910722 457.018248,252.715045 459.162254,251.189502 C461.30626,249.663959 463.182238,247.849827 464.790242,245.747052 C466.398247,243.644276 467.57331,241.355996 468.315466,238.882143 L483.900664,238.882143 Z" id="C" fill="#111111"></path>
                <path d="M545.991976,319.498059 C545.991976,325.492543 547.642606,330.096932 550.943916,333.311366 C554.245226,336.525799 558.502114,338.132992 563.714709,338.132992 C565.799747,338.132992 567.75444,337.807209 569.578848,337.155635 C571.403256,336.504061 572.98873,335.59187 574.335317,334.419036 C575.681904,333.246203 576.746126,331.83448 577.528015,330.183825 C578.309904,328.53317 578.700843,326.665351 578.700843,324.580313 C578.700843,322.234646 578.244748,320.279952 577.332544,318.716174 C576.42034,317.152396 575.247524,315.827548 573.81406,314.74159 C572.380597,313.655633 570.816842,312.743443 569.122748,312.004992 C567.428655,311.266541 565.799744,310.636695 564.235966,310.115436 C560.06589,308.638534 556.156503,307.139936 552.507686,305.619596 C548.85887,304.099255 545.666204,302.274875 542.929592,300.146399 C540.19298,298.017922 538.042817,295.433383 536.479038,292.392703 C534.91526,289.352023 534.133382,285.529511 534.133382,280.925052 C534.133382,277.189359 534.893541,273.779505 536.413881,270.695387 C537.934221,267.611268 539.97579,264.961572 542.538649,262.74622 C545.101508,260.530867 548.098705,258.836799 551.53033,257.663965 C554.961955,256.491132 558.588997,255.904723 562.411567,255.904723 C566.494766,255.904723 570.317278,256.599726 573.879217,257.989751 C577.441157,259.379776 580.525229,261.33447 583.131526,263.85389 C585.737824,266.373311 587.779393,269.370508 589.256294,272.845571 C590.733196,276.320634 591.471636,280.186584 591.471636,284.443536 L576.485502,284.443536 C576.485502,279.925954 575.269248,276.277193 572.836704,273.497142 C570.404159,270.717092 567.059461,269.327087 562.802509,269.327087 C559.066816,269.327087 555.852431,270.282715 553.159257,272.194 C550.466084,274.105285 549.119517,277.015606 549.119517,280.925052 C549.119517,282.74946 549.488737,284.378372 550.227188,285.811835 C550.965639,287.245299 551.964704,288.483271 553.224415,289.52579 C554.484125,290.568309 555.895848,291.4805 557.459626,292.262389 C559.023405,293.044278 560.674035,293.73928 562.411567,294.347416 C565.973506,295.650565 569.600549,297.040569 573.292803,298.517471 C576.985058,299.994373 580.351475,301.818753 583.392155,303.990668 C586.432835,306.162582 588.90878,308.76884 590.820065,311.809521 C592.73135,314.850201 593.686978,318.5424 593.686978,322.886229 C593.686978,327.577564 592.861662,331.704139 591.211008,335.266079 C589.560353,338.828018 587.301595,341.825215 584.434668,344.25776 C581.567741,346.690304 578.244762,348.514684 574.465631,349.730956 C570.6865,350.947229 566.668519,351.555355 562.411567,351.555355 C558.241491,351.555355 554.266947,350.838634 550.487816,349.405171 C546.708685,347.971707 543.385706,345.886701 540.518779,343.150089 C537.651852,340.413477 535.349657,337.068779 533.612126,333.115894 C531.874594,329.16301 531.005841,324.623777 531.005841,319.498059 L545.991976,319.498059 Z" id="S" fill="#111111" transform="translate(562.346409, 303.730039) rotate(-360.000000) translate(-562.346409, -303.730039) "></path>
                <path d="M658.587449,397.637252 C658.587449,403.631736 660.238079,408.236125 663.539389,411.450559 C666.840699,414.664992 671.097587,416.272184 676.310182,416.272184 C678.39522,416.272184 680.349913,415.946402 682.174321,415.294828 C683.99873,414.643254 685.584203,413.731063 686.93079,412.558229 C688.277377,411.385396 689.341599,409.973672 690.123488,408.323018 C690.905378,406.672363 691.296316,404.804544 691.296316,402.719506 C691.296316,400.373839 690.840221,398.419145 689.928017,396.855367 C689.015813,395.291588 687.842997,393.966741 686.409533,392.880783 C684.97607,391.794826 683.412315,390.882636 681.718222,390.144185 C680.024128,389.405734 678.395217,388.775888 676.831439,388.254629 C672.661363,386.777727 668.751976,385.279129 665.10316,383.758788 C661.454343,382.238448 658.261677,380.414068 655.525065,378.285592 C652.788453,376.157115 650.63829,373.572576 649.074511,370.531896 C647.510733,367.491216 646.728856,363.668704 646.728856,359.064245 C646.728856,355.328552 647.489014,351.918698 649.009354,348.83458 C650.529694,345.750461 652.571263,343.100765 655.134122,340.885413 C657.696981,338.67006 660.694178,336.975992 664.125803,335.803158 C667.557428,334.630324 671.18447,334.043916 675.00704,334.043916 C679.090239,334.043916 682.912751,334.738919 686.47469,336.128944 C690.03663,337.518969 693.120702,339.473663 695.727,341.993083 C698.333297,344.512504 700.374866,347.509701 701.851768,350.984764 C703.328669,354.459827 704.067109,358.325777 704.067109,362.582729 L689.080975,362.582729 C689.080975,358.065147 687.864721,354.416386 685.432177,351.636335 C682.999633,348.856285 679.654935,347.46628 675.397982,347.46628 C671.66229,347.46628 668.447905,348.421908 665.754731,350.333193 C663.061557,352.244478 661.71499,355.154799 661.71499,359.064245 C661.71499,360.888653 662.08421,362.517565 662.822661,363.951028 C663.561112,365.384492 664.560177,366.622464 665.819888,367.664983 C667.079598,368.707502 668.491321,369.619692 670.0551,370.401582 C671.618878,371.183471 673.269508,371.878473 675.00704,372.486609 C678.568979,373.789758 682.196022,375.179762 685.888277,376.656664 C689.580531,378.133566 692.946948,379.957946 695.987628,382.129861 C699.028308,384.301775 701.504253,386.908033 703.415538,389.948714 C705.326823,392.989394 706.282451,396.681593 706.282451,401.025422 C706.282451,405.716757 705.457136,409.843332 703.806481,413.405272 C702.155826,416.967211 699.897069,419.964408 697.030142,422.396952 C694.163215,424.829497 690.840235,426.653877 687.061104,427.870149 C683.281973,429.086421 679.263992,429.694548 675.00704,429.694548 C670.836964,429.694548 666.86242,428.977827 663.083289,427.544364 C659.304158,426.1109 655.981179,424.025894 653.114252,421.289282 C650.247325,418.55267 647.94513,415.207972 646.207599,411.255087 C644.470067,407.302203 643.601315,402.76297 643.601315,397.637252 L658.587449,397.637252 Z" id="S" fill="#111111" transform="translate(674.941883, 381.869232) rotate(3.000000) translate(-674.941883, -381.869232) "></path>
                <path d="M1053.81021,38.5346155 C1041.93674,34.6721081 1036,35.7927923 1036,41.8966683 C1036,51.0524821 1039.17261,49.4243795 1043.09732,57.6679546 C1047.02204,65.9115296 1046.71289,73.2164039 1044.90511,79.0839798 C1043.09732,84.9515557 1041.02076,94.9820047 1050.52476,98.3607702 C1060.02875,101.739536 1064.43238,104.787847 1064.43238,112.268394 C1064.43238,119.748941 1058.7791,134.14978 1064.43238,134.14978 C1070.08567,134.14978 1077.24142,141.399133 1077.24142,146.958821 C1077.24142,152.518509 1082.36519,157.411964 1087.69457,157.411964 C1091.24749,157.411964 1092.97915,155.680304 1092.88955,152.216983 L1099.27592,72.8445447 L1053.81021,38.5346155 Z" id="Path-4" stroke="#111111" stroke-width="6" fill="#FF5743"></path>
                <polygon id="Path-8" stroke="#191919" stroke-width="6" fill="#FFE400" points="89.979359 230.574675 178.561151 230.574675 178.561151 279.157602 220.56026 279.157602 220.56026 362.189833 139.165121 362.189833 38.4890051 300.943454"></polygon>
                <polygon id="—&gt;" fill="#3758F4" points="325 145.664675 278.2 188.864675 266.2 175.864675 290.2 154.464675 185 154.464675 185 136.664675 289.8 136.664675 266.2 115.464675 278.2 102.464675"></polygon>
                <rect id="Rectangle-Copy" fill="#7632C4" x="682.885952" y="0.0790041443" width="81.1905688" height="112.250048"></rect>
                <mask id="mask-2" fill="white">
                    <use xlink:href="#path-1"></use>
                </mask>
                <use id="Combined-Shape" stroke="#3EC446" stroke-width="8" xlink:href="#path-1"></use>
                <circle id="Oval" fill="#181818" cx="1169.00634" cy="323.16306" r="35.82208"></circle>
                <mask id="mask-4" fill="white">
                    <use xlink:href="#path-3"></use>
                </mask>
                <use id="Combined-Shape" stroke="#111111" stroke-width="2.304" fill="#111111" xlink:href="#path-3"></use>
                <mask id="mask-6" fill="white">
                    <use xlink:href="#path-5"></use>
                </mask>
                <path stroke="#111111" stroke-width="6" d="M893.281044,415.905103 C895.834626,372.979274 927.224058,339.293991 965.38147,339.293991 C1003.53888,339.293991 1034.92831,372.979274 1037.4819,415.905103 L1037.67096,419.083253 L893.091981,419.083253 L893.281044,415.905103 Z"></path>
                <path d="M923.207836,400.978507 C923.207836,398.639652 923.405086,396.681242 923.799592,395.103219 C924.194098,393.525196 924.74358,392.186714 925.448054,391.087734 C926.152529,389.988753 926.990841,389.058861 927.963016,388.298028 C928.935191,387.537196 929.984842,386.790464 931.112001,386.057811 C931.760118,385.663305 932.429359,385.254716 933.119744,384.832031 C933.810129,384.409346 934.437102,383.937355 935.000682,383.416044 C935.564261,382.894733 936.029207,382.302983 936.395534,381.640777 C936.761861,380.978571 936.945022,380.196616 936.945022,379.294889 C936.945022,377.85776 936.536433,376.822198 935.719242,376.188171 C934.902052,375.554144 933.887623,375.237135 932.675927,375.237135 C931.407873,375.237135 930.322998,375.624591 929.421271,376.399513 C928.519544,377.174435 928.068687,378.421336 928.068687,380.140254 L923.207836,380.140254 C923.207836,378.646768 923.468488,377.322375 923.989799,376.167037 C924.51111,375.011699 925.215574,374.046583 926.103212,373.271661 C926.99085,372.496739 928.005278,371.904989 929.146527,371.496394 C930.287776,371.087799 931.47832,370.883504 932.718195,370.883504 C933.98625,370.883504 935.176794,371.066665 936.289864,371.432992 C937.402933,371.799319 938.368049,372.355845 939.18524,373.102588 C940.00243,373.849331 940.643492,374.779224 941.108446,375.892293 C941.573399,377.005363 941.805872,378.294532 941.805872,379.759839 C941.805872,381.112431 941.481818,382.324109 940.833702,383.39491 C940.185585,384.465711 939.424764,385.402648 938.551216,386.205749 C937.677667,387.00885 936.797087,387.692181 935.909449,388.25576 C935.021811,388.81934 934.338481,389.270197 933.859439,389.608345 C932.788637,390.369177 931.922146,391.031373 931.25994,391.594953 C930.597734,392.158533 930.083476,392.693925 929.717149,393.201147 C929.350822,393.708369 929.10426,394.229672 928.977454,394.765073 C928.850649,395.300473 928.787247,395.920402 928.787247,396.624876 L941.636799,396.624876 L941.636799,400.978507 L923.207836,400.978507 Z M956.162992,401.485726 C954.584969,401.485726 953.161951,401.210985 951.893897,400.661495 C950.625843,400.112005 949.540968,399.358229 948.639241,398.400143 C947.737514,397.442058 947.040094,396.343094 946.546962,395.103219 C946.05383,393.863343 945.807267,392.538951 945.807267,391.130002 C945.807267,389.749232 946.05383,388.431884 946.546962,387.177919 C947.040094,385.923955 947.737514,384.817946 948.639241,383.859861 C949.540968,382.901775 950.625843,382.147999 951.893897,381.598509 C953.161951,381.049019 954.584969,380.774278 956.162992,380.774278 C957.741015,380.774278 959.171077,381.049019 960.45322,381.598509 C961.735364,382.147999 962.834328,382.901775 963.750145,383.859861 C964.665962,384.817946 965.370426,385.923955 965.863558,387.177919 C966.35669,388.431884 966.603252,389.749232 966.603252,391.130002 C966.603252,392.538951 966.35669,393.863343 965.863558,395.103219 C965.370426,396.343094 964.665962,397.442058 963.750145,398.400143 C962.834328,399.358229 961.735364,400.112005 960.45322,400.661495 C959.171077,401.210985 957.741015,401.485726 956.162992,401.485726 Z M956.162992,397.385705 C957.03654,397.385705 957.832584,397.216634 958.551149,396.878486 C959.269713,396.540338 959.882596,396.089481 960.389818,395.525901 C960.89704,394.962322 961.291539,394.300126 961.573329,393.539293 C961.855119,392.77846 961.996012,391.975372 961.996012,391.130002 C961.996012,390.284633 961.855119,389.481544 961.573329,388.720711 C961.291539,387.959879 960.89704,387.297682 960.389818,386.734103 C959.882596,386.170523 959.269713,385.719666 958.551149,385.381518 C957.832584,385.043371 957.03654,384.874299 956.162992,384.874299 C955.289443,384.874299 954.500444,385.043371 953.795969,385.381518 C953.091494,385.719666 952.485655,386.170523 951.978434,386.734103 C951.471212,387.297682 951.083757,387.959879 950.816056,388.720711 C950.548356,389.481544 950.414508,390.284633 950.414508,391.130002 C950.414508,391.975372 950.548356,392.77846 950.816056,393.539293 C951.083757,394.300126 951.471212,394.962322 951.978434,395.525901 C952.485655,396.089481 953.091494,396.540338 953.795969,396.878486 C954.500444,397.216634 955.289443,397.385705 956.162992,397.385705 Z M970.181965,376.293842 C971.534557,376.293842 972.63352,376.202262 973.47889,376.019098 C974.324259,375.835935 974.986455,375.554149 975.465498,375.173733 C975.944541,374.793317 976.268594,374.293147 976.437668,373.67321 C976.606742,373.053272 976.691278,372.292451 976.691278,371.390723 L981.298518,371.390723 L981.298518,400.978507 L976.268595,400.978507 L976.268595,380.140254 L970.181965,380.140254 L970.181965,376.293842 Z M997.219564,370.883504 C998.769408,370.883504 1000.18538,371.158245 1001.46752,371.707735 C1002.74967,372.257226 1003.84159,373.011002 1004.74331,373.969087 C1005.64504,374.927173 1006.34246,376.033181 1006.83559,377.287146 C1007.32873,378.541111 1007.57529,379.858458 1007.57529,381.239229 C1007.57529,382.394567 1007.39917,383.479441 1007.04693,384.493885 C1006.6947,385.508328 1006.2368,386.466399 1005.67322,387.368127 L997.219564,400.978507 L991.640153,400.978507 L997.853588,391.594953 C996.162849,391.594953 994.641207,391.334301 993.288616,390.81299 C991.936024,390.291679 990.773659,389.573126 989.801484,388.657309 C988.829309,387.741492 988.082577,386.649573 987.561266,385.381518 C987.039955,384.113464 986.779303,382.732715 986.779303,381.239229 C986.779303,379.858458 987.025866,378.541111 987.518998,377.287146 C988.01213,376.033181 988.709549,374.927173 989.611277,373.969087 C990.513004,373.011002 991.611968,372.257226 992.908201,371.707735 C994.204434,371.158245 995.641541,370.883504 997.219564,370.883504 Z M997.219564,375.237135 C996.374194,375.237135 995.606329,375.399162 994.915944,375.72322 C994.225559,376.047279 993.640853,376.484046 993.161811,377.033537 C992.682768,377.583027 992.309402,378.217044 992.041702,378.935608 C991.774001,379.654172 991.640153,380.422038 991.640153,381.239229 C991.640153,382.056419 991.774001,382.824285 992.041702,383.542849 C992.309402,384.261413 992.682768,384.895431 993.161811,385.444921 C993.640853,385.994411 994.225559,386.431179 994.915944,386.755237 C995.606329,387.079295 996.374194,387.241322 997.219564,387.241322 C998.064933,387.241322 998.825755,387.079295 999.50205,386.755237 C1000.17835,386.431179 1000.75601,385.994411 1001.23505,385.444921 C1001.71409,384.895431 1002.08041,384.261413 1002.33402,383.542849 C1002.58763,382.824285 1002.71444,382.056419 1002.71444,381.239229 C1002.71444,380.422038 1002.58763,379.654172 1002.33402,378.935608 C1002.08041,378.217044 1001.71409,377.583027 1001.23505,377.033537 C1000.75601,376.484046 1000.17835,376.047279 999.50205,375.72322 C998.825755,375.399162 998.064933,375.237135 997.219564,375.237135 Z" id="2o19" fill="#111111" mask="url(#mask-6)"></path>
                <path d="M831.001029,209.897222 L841.517029,209.897222 C843.62904,209.897222 845.330356,210.18322 846.621029,210.755222 C847.911702,211.327225 848.916359,212.031218 849.635029,212.867222 C850.353699,213.703227 850.830361,214.605218 851.065029,215.573222 C851.299697,216.541227 851.417029,217.421219 851.417029,218.213222 C851.417029,219.181227 851.255697,220.053885 850.933029,220.831222 C850.610361,221.60856 850.192365,222.28322 849.679029,222.855222 C849.165693,223.427225 848.586366,223.896554 847.941029,224.263222 C847.295693,224.629891 846.650366,224.886555 846.005029,225.033222 C846.503698,225.033222 847.075693,225.179888 847.721029,225.473222 C848.366366,225.766557 848.98236,226.19922 849.569029,226.771222 C850.155699,227.343225 850.65436,228.061885 851.065029,228.927222 C851.475698,229.79256 851.681029,230.811883 851.681029,231.985222 C851.681029,232.777226 851.549031,233.679217 851.285029,234.691222 C851.021028,235.703228 850.522366,236.656551 849.789029,237.551222 C849.055692,238.445894 848.029036,239.193886 846.709029,239.795222 C845.389023,240.396559 843.67304,240.697222 841.561029,240.697222 L831.001029,240.697222 L831.001029,209.897222 Z M836.061029,227.365222 L836.061029,236.165222 L841.781029,236.165222 C842.807701,236.165222 843.636359,236.025891 844.267029,235.747222 C844.897699,235.468554 845.389027,235.109225 845.741029,234.669222 C846.093031,234.22922 846.327695,233.752558 846.445029,233.239222 C846.562363,232.725887 846.621029,232.249225 846.621029,231.809222 C846.621029,231.427887 846.55503,230.980558 846.423029,230.467222 C846.291029,229.953887 846.041698,229.469891 845.675029,229.015222 C845.308361,228.560554 844.817032,228.171891 844.201029,227.849222 C843.585026,227.526554 842.793034,227.365222 841.825029,227.365222 L836.061029,227.365222 Z M841.517029,222.833222 C842.543701,222.833222 843.372359,222.686557 844.003029,222.393222 C844.633699,222.099888 845.125027,221.740558 845.477029,221.315222 C845.829031,220.889887 846.063695,220.435225 846.181029,219.951222 C846.298363,219.46722 846.357029,219.034558 846.357029,218.653222 C846.357029,218.271887 846.298363,217.839225 846.181029,217.355222 C846.063695,216.87122 845.829031,216.409225 845.477029,215.969222 C845.125027,215.52922 844.633699,215.162557 844.003029,214.869222 C843.372359,214.575888 842.543701,214.429222 841.517029,214.429222 L836.061029,214.429222 L836.061029,222.833222 L841.517029,222.833222 Z M865.849029,223.273222 C864.353022,223.273222 863.106368,223.698552 862.109029,224.549222 C861.111691,225.399893 860.613029,226.661214 860.613029,228.333222 L870.821029,228.333222 C870.821029,226.749215 870.359034,225.509894 869.435029,224.615222 C868.511025,223.720551 867.315703,223.273222 865.849029,223.273222 Z M860.613029,231.897222 C860.671696,232.630559 860.803695,233.319886 861.009029,233.965222 C861.214364,234.610559 861.529694,235.17522 861.955029,235.659222 C862.380365,236.143225 862.930359,236.524554 863.605029,236.803222 C864.279699,237.081891 865.115691,237.221222 866.113029,237.221222 C867.491703,237.221222 868.489026,236.957225 869.105029,236.429222 C869.721032,235.90122 870.175694,235.270559 870.469029,234.537222 L875.309029,234.537222 C875.162362,235.417227 874.847032,236.260552 874.363029,237.067222 C873.879027,237.873893 873.241033,238.585219 872.449029,239.201222 C871.657025,239.817226 870.733034,240.308554 869.677029,240.675222 C868.621024,241.041891 867.433036,241.225222 866.113029,241.225222 C864.382354,241.225222 862.879036,240.946559 861.603029,240.389222 C860.327023,239.831886 859.2637,239.069227 858.413029,238.101222 C857.562358,237.133218 856.924365,235.989229 856.499029,234.669222 C856.073694,233.349216 855.861029,231.94123 855.861029,230.445222 C855.861029,228.919882 856.08836,227.497229 856.543029,226.177222 C856.997698,224.857216 857.650358,223.713227 858.501029,222.745222 C859.3517,221.777218 860.40769,221.021892 861.669029,220.479222 C862.930369,219.936553 864.367688,219.665222 865.981029,219.665222 C867.301036,219.665222 868.540357,219.899887 869.699029,220.369222 C870.857702,220.838558 871.869692,221.491218 872.735029,222.327222 C873.600367,223.163227 874.275027,224.13855 874.759029,225.253222 C875.243032,226.367895 875.485029,227.585216 875.485029,228.905222 C875.485029,229.257224 875.477696,229.67522 875.463029,230.159222 C875.448362,230.643225 875.382363,231.222552 875.265029,231.897222 L860.613029,231.897222 Z M893.701029,224.637222 C893.319694,224.549222 893.004364,224.490556 892.755029,224.461222 C892.505695,224.431889 892.190364,224.417222 891.809029,224.417222 C889.755686,224.417222 888.186368,225.011217 887.101029,226.199222 C886.01569,227.387228 885.473029,229.271876 885.473029,231.853222 L885.473029,240.697222 L880.677029,240.697222 L880.677029,220.193222 L885.473029,220.193222 L885.473029,223.493222 C885.707697,223.023887 886.037694,222.576558 886.463029,222.151222 C886.888365,221.725887 887.387026,221.344557 887.959029,221.007222 C888.531032,220.669887 889.147026,220.40589 889.807029,220.215222 C890.467032,220.024555 891.134359,219.929222 891.809029,219.929222 C892.5717,219.929222 893.20236,220.031888 893.701029,220.237222 L893.701029,224.637222 Z M897.309029,209.897222 L902.105029,209.897222 L902.105029,240.697222 L897.309029,240.697222 L897.309029,209.897222 Z M908.529029,220.193222 L913.325029,220.193222 L913.325029,240.697222 L908.529029,240.697222 L908.529029,220.193222 Z M907.385029,212.713222 C907.385029,211.715884 907.729692,210.872559 908.419029,210.183222 C909.108366,209.493886 909.937024,209.149222 910.905029,209.149222 C911.902368,209.149222 912.745692,209.493886 913.435029,210.183222 C914.124366,210.872559 914.469029,211.715884 914.469029,212.713222 C914.469029,213.681227 914.124366,214.509886 913.435029,215.199222 C912.745692,215.888559 911.902368,216.233222 910.905029,216.233222 C909.937024,216.233222 909.108366,215.888559 908.419029,215.199222 C907.729692,214.509886 907.385029,213.681227 907.385029,212.713222 Z M919.749029,220.193222 L924.545029,220.193222 L924.545029,223.053222 C925.190366,221.93855 926.085023,221.095225 927.229029,220.523222 C928.373035,219.95122 929.707688,219.665222 931.233029,219.665222 C932.729037,219.665222 933.983024,219.914553 934.995029,220.413222 C936.007034,220.911892 936.80636,221.586552 937.393029,222.437222 C937.891698,223.199893 938.236362,224.050551 938.427029,224.989222 C938.617697,225.927894 938.713029,227.101215 938.713029,228.509222 L938.713029,240.697222 L933.917029,240.697222 L933.917029,230.093222 C933.917029,229.213218 933.843697,228.391893 933.697029,227.629222 C933.550362,226.866552 933.308364,226.213892 932.971029,225.671222 C932.633694,225.128553 932.179032,224.695891 931.607029,224.373222 C931.035026,224.050554 930.3237,223.889222 929.473029,223.889222 C927.801021,223.889222 926.5617,224.483217 925.755029,225.671222 C924.948358,226.859228 924.545029,228.333214 924.545029,230.093222 L924.545029,240.697222 L919.749029,240.697222 L919.749029,220.193222 Z M943.773029,230.313222 L943.773029,226.045222 L983.637029,226.045222 L983.637029,230.313222 L943.773029,230.313222 Z M992.349029,230.401222 C992.349029,231.398561 992.503028,232.285885 992.811029,233.063222 C993.119031,233.84056 993.537027,234.500553 994.065029,235.043222 C994.593032,235.585892 995.216359,235.996554 995.935029,236.275222 C996.653699,236.553891 997.423692,236.693222 998.245029,236.693222 C999.037033,236.693222 999.755693,236.561224 1000.40103,236.297222 C1001.04637,236.033221 1001.58903,235.681225 1002.02903,235.241222 C1002.46903,234.80122 1002.80636,234.287892 1003.04103,233.701222 C1003.2757,233.114553 1003.39303,232.513226 1003.39303,231.897222 C1003.39303,231.163885 1003.2977,230.489226 1003.10703,229.873222 C1002.91636,229.257219 1002.60836,228.721891 1002.18303,228.267222 C1001.75769,227.812554 1001.19303,227.453224 1000.48903,227.189222 C999.785026,226.925221 998.905034,226.793222 997.849029,226.793222 L995.781029,226.793222 L995.781029,222.305222 L997.893029,222.305222 C999.711705,222.305222 1000.95836,221.887227 1001.63303,221.051222 C1002.3077,220.215218 1002.64503,219.137229 1002.64503,217.817222 C1002.64503,216.497216 1002.2417,215.514559 1001.43503,214.869222 C1000.62836,214.223886 999.579702,213.901222 998.289029,213.901222 C996.470353,213.901222 995.201699,214.370551 994.483029,215.309222 C993.764359,216.247894 993.405029,217.479882 993.405029,219.005222 L988.345029,219.005222 C988.345029,217.567882 988.579694,216.262562 989.049029,215.089222 C989.518365,213.915883 990.178358,212.903893 991.029029,212.053222 C991.8797,211.202552 992.89169,210.542558 994.065029,210.073222 C995.238368,209.603887 996.529022,209.369222 997.937029,209.369222 C999.257036,209.369222 1000.51102,209.56722 1001.69903,209.963222 C1002.88704,210.359224 1003.92102,210.931219 1004.80103,211.679222 C1005.68103,212.427226 1006.38503,213.321884 1006.91303,214.363222 C1007.44103,215.404561 1007.70503,216.555883 1007.70503,217.817222 C1007.70503,219.577231 1007.31637,221.01455 1006.53903,222.129222 C1005.76169,223.243895 1004.75704,224.06522 1003.52503,224.593222 C1004.93304,225.150559 1006.10636,226.00855 1007.04503,227.167222 C1007.9837,228.325895 1008.45303,229.887879 1008.45303,231.853222 C1008.45303,233.26123 1008.17437,234.537217 1007.61703,235.681222 C1007.05969,236.825228 1006.3117,237.807885 1005.37303,238.629222 C1004.43436,239.45056 1003.32704,240.088554 1002.05103,240.543222 C1000.77502,240.997891 999.433036,241.225222 998.025029,241.225222 C996.617022,241.225222 995.267702,240.983225 993.977029,240.499222 C992.686356,240.01522 991.549701,239.311227 990.567029,238.387222 C989.584358,237.463218 988.792366,236.333896 988.191029,234.999222 C987.589693,233.664549 987.289029,232.131898 987.289029,230.401222 L992.349029,230.401222 Z M1012.19303,215.001222 C1013.60104,215.001222 1014.74502,214.90589 1015.62503,214.715222 C1016.50503,214.524555 1017.19436,214.231224 1017.69303,213.835222 C1018.1917,213.43922 1018.52903,212.918559 1018.70503,212.273222 C1018.88103,211.627886 1018.96903,210.835894 1018.96903,209.897222 L1023.76503,209.897222 L1023.76503,240.697222 L1018.52903,240.697222 L1018.52903,219.005222 L1012.19303,219.005222 L1012.19303,215.001222 Z M1029.61703,237.441222 C1029.61703,236.443884 1029.96169,235.600559 1030.65103,234.911222 C1031.34037,234.221886 1032.16902,233.877222 1033.13703,233.877222 C1034.13437,233.877222 1034.97769,234.221886 1035.66703,234.911222 C1036.35637,235.600559 1036.70103,236.443884 1036.70103,237.441222 C1036.70103,238.409227 1036.35637,239.237886 1035.66703,239.927222 C1034.97769,240.616559 1034.13437,240.961222 1033.13703,240.961222 C1032.16902,240.961222 1031.34037,240.616559 1030.65103,239.927222 C1029.96169,239.237886 1029.61703,238.409227 1029.61703,237.441222 Z M1071.90103,240.697222 L1066.84103,240.697222 L1066.84103,221.645222 L1059.14103,240.697222 L1055.31303,240.697222 L1047.61303,221.645222 L1047.61303,240.697222 L1042.55303,240.697222 L1042.55303,209.897222 L1047.39303,209.897222 L1057.24903,232.821222 L1067.06103,209.897222 L1071.90103,209.897222 L1071.90103,240.697222 Z M1098.43303,220.193222 L1098.43303,240.697222 L1093.63703,240.697222 L1093.63703,237.925222 C1092.99169,238.951894 1092.07504,239.758553 1090.88703,240.345222 C1089.69902,240.931892 1088.5037,241.225222 1087.30103,241.225222 C1085.74635,241.225222 1084.3237,240.939225 1083.03303,240.367222 C1081.74236,239.79522 1080.63503,239.010561 1079.71103,238.013222 C1078.78702,237.015884 1078.06837,235.871896 1077.55503,234.581222 C1077.04169,233.290549 1076.78503,231.911896 1076.78503,230.445222 C1076.78503,229.007882 1077.04169,227.636562 1077.55503,226.331222 C1078.06837,225.025883 1078.78702,223.874561 1079.71103,222.877222 C1080.63503,221.879884 1081.74236,221.095225 1083.03303,220.523222 C1084.3237,219.95122 1085.74635,219.665222 1087.30103,219.665222 C1088.5037,219.665222 1089.69902,219.958553 1090.88703,220.545222 C1092.07504,221.131892 1092.99169,221.938551 1093.63703,222.965222 L1093.63703,220.193222 L1098.43303,220.193222 Z M1087.56503,236.957222 C1088.47437,236.957222 1089.30303,236.781224 1090.05103,236.429222 C1090.79903,236.077221 1091.43703,235.607892 1091.96503,235.021222 C1092.49303,234.434553 1092.90369,233.745226 1093.19703,232.953222 C1093.49036,232.161219 1093.63703,231.325227 1093.63703,230.445222 C1093.63703,229.565218 1093.49036,228.729226 1093.19703,227.937222 C1092.90369,227.145219 1092.49303,226.455892 1091.96503,225.869222 C1091.43703,225.282553 1090.79903,224.813224 1090.05103,224.461222 C1089.30303,224.109221 1088.47437,223.933222 1087.56503,223.933222 C1086.65569,223.933222 1085.83437,224.109221 1085.10103,224.461222 C1084.36769,224.813224 1083.73703,225.282553 1083.20903,225.869222 C1082.68103,226.455892 1082.2777,227.145219 1081.99903,227.937222 C1081.72036,228.729226 1081.58103,229.565218 1081.58103,230.445222 C1081.58103,231.325227 1081.72036,232.161219 1081.99903,232.953222 C1082.2777,233.745226 1082.68103,234.434553 1083.20903,235.021222 C1083.73703,235.607892 1084.36769,236.077221 1085.10103,236.429222 C1085.83437,236.781224 1086.65569,236.957222 1087.56503,236.957222 Z M1114.09703,251.477222 C1112.71836,251.477222 1111.4497,251.301224 1110.29103,250.949222 C1109.13236,250.597221 1108.1277,250.069226 1107.27703,249.365222 C1106.42636,248.661219 1105.75903,247.781228 1105.27503,246.725222 C1104.79103,245.669217 1104.53436,244.43723 1104.50503,243.029222 L1109.34503,243.029222 C1109.46236,244.52523 1109.98302,245.632552 1110.90703,246.351222 C1111.83103,247.069893 1112.92369,247.429222 1114.18503,247.429222 C1114.91837,247.429222 1115.59303,247.35589 1116.20903,247.209222 C1116.82503,247.062555 1117.35303,246.798558 1117.79303,246.417222 C1118.23303,246.035887 1118.57769,245.537226 1118.82703,244.921222 C1119.07636,244.305219 1119.20103,243.513227 1119.20103,242.545222 L1119.20103,237.837222 C1118.55569,238.951895 1117.66103,239.79522 1116.51703,240.367222 C1115.37302,240.939225 1114.03837,241.225222 1112.51303,241.225222 C1111.01702,241.225222 1109.76303,240.975892 1108.75103,240.477222 C1107.73902,239.978553 1106.9397,239.303893 1106.35303,238.453222 C1105.85436,237.690552 1105.5097,236.839894 1105.31903,235.901222 C1105.12836,234.962551 1105.03303,233.78923 1105.03303,232.381222 L1105.03303,220.193222 L1109.82903,220.193222 L1109.82903,230.797222 C1109.82903,231.677227 1109.90236,232.498552 1110.04903,233.261222 C1110.1957,234.023893 1110.43769,234.676553 1110.77503,235.219222 C1111.11236,235.761892 1111.56703,236.194554 1112.13903,236.517222 C1112.71103,236.839891 1113.42236,237.001222 1114.27303,237.001222 C1115.94504,237.001222 1117.18436,236.407228 1117.99103,235.219222 C1118.7977,234.031217 1119.20103,232.557231 1119.20103,230.797222 L1119.20103,220.193222 L1123.99703,220.193222 L1123.99703,242.545222 C1123.99703,245.507904 1123.14637,247.751882 1121.44503,249.277222 C1119.77302,250.743896 1117.32371,251.477222 1114.09703,251.477222 Z" id="Berlin—31.May" fill="#111111"></path>
                <path d="M265.463485,431.097035 C265.196817,429.070359 264.410158,427.430375 263.103485,426.177035 C261.796812,424.923696 259.650167,424.297035 256.663485,424.297035 C254.95681,424.297035 253.490158,424.617032 252.263485,425.257035 C251.036812,425.897039 249.996823,426.763697 249.143485,427.857035 C248.290148,428.950374 247.663487,430.203695 247.263485,431.617035 C246.863483,433.030376 246.663485,434.537027 246.663485,436.137035 C246.663485,437.737043 246.863483,439.257028 247.263485,440.697035 C247.663487,442.137043 248.290148,443.390363 249.143485,444.457035 C249.996823,445.523707 251.090145,446.377032 252.423485,447.017035 C253.756825,447.657039 255.356809,447.977035 257.223485,447.977035 C259.783498,447.977035 261.663479,447.443707 262.863485,446.377035 C264.063491,445.310363 264.956816,443.843711 265.543485,441.977035 L274.263485,441.977035 C273.943484,443.897045 273.356823,445.697027 272.503485,447.377035 C271.650148,449.057044 270.490159,450.523696 269.023485,451.777035 C267.556811,453.030375 265.796829,454.003699 263.743485,454.697035 C261.690142,455.390372 259.303499,455.737035 256.583485,455.737035 C253.54347,455.737035 250.863497,455.190374 248.543485,454.097035 C246.223474,453.003697 244.276826,451.550378 242.703485,449.737035 C241.130144,447.923693 239.943489,445.843714 239.143485,443.497035 C238.343481,441.150357 237.943485,438.697048 237.943485,436.137035 C237.943485,433.630356 238.343481,431.190381 239.143485,428.817035 C239.943489,426.44369 241.130144,424.350378 242.703485,422.537035 C244.276826,420.723693 246.21014,419.270374 248.503485,418.177035 C250.79683,417.083697 253.46347,416.537035 256.503485,416.537035 C259.5435,416.537035 262.143474,416.963698 264.303485,417.817035 C266.463496,418.670373 268.250145,419.777029 269.663485,421.137035 C271.076826,422.497042 272.143482,424.043693 272.863485,425.777035 C273.583489,427.510377 274.023484,429.283693 274.183485,431.097035 L265.463485,431.097035 Z M300.103485,455.737035 C297.116804,455.737035 294.423497,455.217041 292.023485,454.177035 C289.623473,453.13703 287.57016,451.710378 285.863485,449.897035 C284.15681,448.083693 282.836823,446.003714 281.903485,443.657035 C280.970147,441.310357 280.503485,438.803715 280.503485,436.137035 C280.503485,433.523689 280.970147,431.030381 281.903485,428.657035 C282.836823,426.28369 284.15681,424.190378 285.863485,422.377035 C287.57016,420.563693 289.623473,419.137041 292.023485,418.097035 C294.423497,417.05703 297.116804,416.537035 300.103485,416.537035 C303.090167,416.537035 305.796806,417.05703 308.223485,418.097035 C310.650164,419.137041 312.730143,420.563693 314.463485,422.377035 C316.196827,424.190378 317.530147,426.28369 318.463485,428.657035 C319.396823,431.030381 319.863485,433.523689 319.863485,436.137035 C319.863485,438.803715 319.396823,441.310357 318.463485,443.657035 C317.530147,446.003714 316.196827,448.083693 314.463485,449.897035 C312.730143,451.710378 310.650164,453.13703 308.223485,454.177035 C305.796806,455.217041 303.090167,455.737035 300.103485,455.737035 Z M300.103485,447.977035 C301.756827,447.977035 303.263478,447.657039 304.623485,447.017035 C305.983492,446.377032 307.14348,445.523707 308.103485,444.457035 C309.06349,443.390363 309.810149,442.137043 310.343485,440.697035 C310.876821,439.257028 311.143485,437.737043 311.143485,436.137035 C311.143485,434.537027 310.876821,433.017043 310.343485,431.577035 C309.810149,430.137028 309.06349,428.883707 308.103485,427.817035 C307.14348,426.750363 305.983492,425.897039 304.623485,425.257035 C303.263478,424.617032 301.756827,424.297035 300.103485,424.297035 C298.450144,424.297035 296.956825,424.617032 295.623485,425.257035 C294.290145,425.897039 293.14349,426.750363 292.183485,427.817035 C291.22348,428.883707 290.490154,430.137028 289.983485,431.577035 C289.476816,433.017043 289.223485,434.537027 289.223485,436.137035 C289.223485,437.737043 289.476816,439.257028 289.983485,440.697035 C290.490154,442.137043 291.22348,443.390363 292.183485,444.457035 C293.14349,445.523707 294.290145,446.377032 295.623485,447.017035 C296.956825,447.657039 298.450144,447.977035 300.103485,447.977035 Z M328.743485,417.497035 L337.463485,417.497035 L337.463485,422.697035 C338.636824,420.670359 340.263475,419.137041 342.343485,418.097035 C344.423496,417.05703 346.850138,416.537035 349.623485,416.537035 C352.343499,416.537035 354.623476,416.990364 356.463485,417.897035 C358.303494,418.803707 359.756813,420.030361 360.823485,421.577035 C361.730156,422.963709 362.356817,424.51036 362.703485,426.217035 C363.050154,427.923711 363.223485,430.057023 363.223485,432.617035 L363.223485,454.777035 L354.503485,454.777035 L354.503485,435.497035 C354.503485,433.897027 354.370153,432.403709 354.103485,431.017035 C353.836817,429.630362 353.396822,428.443707 352.783485,427.457035 C352.170149,426.470364 351.34349,425.683705 350.303485,425.097035 C349.26348,424.510366 347.97016,424.217035 346.423485,424.217035 C343.38347,424.217035 341.130159,425.297025 339.663485,427.457035 C338.196811,429.617046 337.463485,432.297019 337.463485,435.497035 L337.463485,454.777035 L328.743485,454.777035 L328.743485,417.497035 Z M396.103485,406.617035 C395.516816,406.457035 394.903488,406.323703 394.263485,406.217035 C393.623482,406.110368 392.956822,406.057035 392.263485,406.057035 C391.570148,406.057035 390.876822,406.083702 390.183485,406.137035 C389.490148,406.190369 388.863488,406.4037 388.303485,406.777035 C387.743482,407.150371 387.27682,407.737031 386.903485,408.537035 C386.53015,409.337039 386.343485,410.457028 386.343485,411.897035 L386.343485,417.497035 L396.103485,417.497035 L396.103485,424.777035 L386.343485,424.777035 L386.343485,454.777035 L377.623485,454.777035 L377.623485,424.777035 L370.023485,424.777035 L370.023485,417.497035 L377.623485,417.497035 L377.623485,412.857035 C377.623485,409.283684 378.116814,406.523712 379.103485,404.577035 C380.090157,402.630359 381.290145,401.190373 382.703485,400.257035 C384.116826,399.323697 385.596811,398.763703 387.143485,398.577035 C388.69016,398.390368 389.996813,398.297035 391.063485,398.297035 C392.183491,398.297035 393.183481,398.390368 394.063485,398.577035 C394.94349,398.763703 395.623483,398.990367 396.103485,399.257035 L396.103485,406.617035 Z M408.663485,440.569035 C408.663485,436.217014 410.16747,432.53705 413.175485,429.529035 C416.1835,426.52102 419.799464,425.017035 424.023485,425.017035 C428.375507,425.017035 432.05547,426.52102 435.063485,429.529035 C438.0715,432.53705 439.575485,436.217014 439.575485,440.569035 C439.575485,444.793056 438.0715,448.40902 435.063485,451.417035 C432.05547,454.42505 428.375507,455.929035 424.023485,455.929035 C419.799464,455.929035 416.1835,454.42505 413.175485,451.417035 C410.16747,448.40902 408.663485,444.793056 408.663485,440.569035 Z M472.455485,423.097035 C469.735472,423.097035 467.468828,423.870361 465.655485,425.417035 C463.842143,426.96371 462.935485,429.25702 462.935485,432.297035 L481.495485,432.297035 C481.495485,429.417021 480.655494,427.16371 478.975485,425.537035 C477.295477,423.910361 475.122165,423.097035 472.455485,423.097035 Z M462.935485,438.777035 C463.042152,440.110375 463.28215,441.363696 463.655485,442.537035 C464.02882,443.710375 464.602148,444.737031 465.375485,445.617035 C466.148822,446.49704 467.148812,447.190366 468.375485,447.697035 C469.602158,448.203705 471.122143,448.457035 472.935485,448.457035 C475.442164,448.457035 477.25548,447.97704 478.375485,447.017035 C479.495491,446.057031 480.322149,444.910375 480.855485,443.577035 L489.655485,443.577035 C489.388817,445.177043 488.81549,446.710361 487.935485,448.177035 C487.055481,449.643709 485.895492,450.93703 484.455485,452.057035 C483.015478,453.177041 481.335495,454.070365 479.415485,454.737035 C477.495476,455.403705 475.335497,455.737035 472.935485,455.737035 C469.788803,455.737035 467.055497,455.230374 464.735485,454.217035 C462.415474,453.203697 460.48216,451.817044 458.935485,450.057035 C457.388811,448.297027 456.228822,446.217047 455.455485,443.817035 C454.682148,441.417023 454.295485,438.857049 454.295485,436.137035 C454.295485,433.363688 454.708814,430.777047 455.535485,428.377035 C456.362156,425.977023 457.548811,423.897044 459.095485,422.137035 C460.64216,420.377027 462.56214,419.003707 464.855485,418.017035 C467.14883,417.030364 469.762137,416.537035 472.695485,416.537035 C475.095497,416.537035 477.348808,416.963698 479.455485,417.817035 C481.562162,418.670373 483.402144,419.857028 484.975485,421.377035 C486.548826,422.897043 487.775481,424.670359 488.655485,426.697035 C489.53549,428.723712 489.975485,430.937023 489.975485,433.337035 C489.975485,433.977039 489.962152,434.737031 489.935485,435.617035 C489.908818,436.49704 489.78882,437.550363 489.575485,438.777035 L462.935485,438.777035 Z M533.255485,417.497035 L533.255485,454.777035 L524.535485,454.777035 L524.535485,449.577035 C523.362146,451.603712 521.735496,453.13703 519.655485,454.177035 C517.575475,455.217041 515.148832,455.737035 512.375485,455.737035 C509.655472,455.737035 507.375494,455.283707 505.535485,454.377035 C503.695476,453.470364 502.242157,452.24371 501.175485,450.697035 C500.268814,449.310362 499.642154,447.763711 499.295485,446.057035 C498.948817,444.35036 498.775485,442.217048 498.775485,439.657035 L498.775485,417.497035 L507.495485,417.497035 L507.495485,436.777035 C507.495485,438.377043 507.628817,439.870362 507.895485,441.257035 C508.162153,442.643709 508.602149,443.830364 509.215485,444.817035 C509.828822,445.803707 510.65548,446.590366 511.695485,447.177035 C512.73549,447.763705 514.028811,448.057035 515.575485,448.057035 C518.6155,448.057035 520.868811,446.977046 522.335485,444.817035 C523.802159,442.657025 524.535485,439.977051 524.535485,436.777035 L524.535485,417.497035 L533.255485,417.497035 Z" id="conf.eu" fill="#111111"></path>
            </g>
        </g>
    </g>
</svg>