<svg height="75" viewBox="0 0 81 75" width="81" xmlns="http://www.w3.org/2000/svg"><g fill="none" fill-rule="evenodd" transform="translate(1.446462 1.265508)"><path d="m23.81765.02770869 54.3521345 39.36625771v32.3519467h-34.8215398v-14.8703392h-19.5305947v-17.4816075h-23.31365v-17.9733038z" fill="#fcd9e3" stroke="#111" stroke-width="2"/><g fill="#111"><path d="m21.9746541 30.5227382c-.1865802.7929657-.5053165 1.5315012-.9562187 2.2156286-.4509021.6841273-1.0106342 1.2827298-1.6792132 1.7958253s-1.4382107.9134594-2.3089182 1.2011039c-.8707076.2876444-1.8035945.4314645-2.7986888.4314645-1.337158 0-2.5343629-.2332217-3.5916506-.6996722-1.05728769-.4664504-1.95519136-1.0922621-2.69373792-1.8774537s-1.30605278-1.6947564-1.70253567-2.7287215c-.39648289-1.0339652-.59472136-2.1262203-.59472136-3.2767981 0-1.1039328.19046442-2.1689787.57139896-3.1951697s.93289264-1.9357558 1.65589085-2.7287216c.72299821-.7929657 1.59369268-1.4265514 2.61210954-1.9007761 1.0184168-.4742246 2.1728644-.7113334 3.4633773-.7113334 1.2127712 0 2.2894782.1671423 3.2301533.5014318s1.7452901.7851848 2.4138691 1.3526995c.6685789.5675148 1.2011019 1.2360837 1.5975848 2.005727.3964829.7696432.6569138 1.5975804.7813006 2.4838363h-2.8220112c-.0932901-.5597406-.2759804-1.0806025-.5480765-1.5626013s-.6141547-.8979109-1.0261859-1.2477487-.8940228-.6258169-1.4459892-.8279454c-.5519664-.2021286-1.1622299-.3031913-1.8308089-.3031913-.9329009 0-1.7686121.1710293-2.5071587.5130929-.7385465.3420637-1.3565841.7968461-1.85413128 1.3643608-.49754715.5675147-.87847598 1.2205356-1.14279791 1.9590821-.26432193.7385466-.39648091 1.5042913-.39648091 2.2972571 0 .8396108.13604601 1.6325647.40814211 2.3788854.27209611.7463207.66857305 1.4032286 1.18944273 1.9707434.52086966.5675147 1.16611646 1.014523 1.93575976 1.3410383.7696432.3265153 1.6519988.4897706 2.6470931.4897706.4664504 0 .9367809-.0816277 1.4110056-.2448853.4742246-.1632577.9134589-.3887054 1.3177159-.6763498.4042571-.2876445.7579767-.629703 1.0611695-1.0261859s.5247535-.8279431.6646886-1.2943935z"/><path d="m33.6821069 45.7230456c0 1.130273.3112299 1.9984408.9336991 2.6045292s1.4251148.9091281 2.407961.9091281c.3931384 0 .7617002-.061427 1.1056963-.1842827.3439961-.1228558.6429407-.2948513.8968426-.5159917.2539019-.2211403.4545633-.4873238.6019902-.7985584.147427-.3112346.2211393-.6634159.2211393-1.0565543 0-.4422808-.0859977-.8108425-.2579958-1.1056964-.1719981-.2948538-.3931351-.5446568-.6634178-.7494164s-.5651321-.3767551-.8845571-.5159916-.6265598-.2579953-.9214136-.3562799c-.7862769-.2784731-1.5234004-.5610371-2.2113927-.8477006-.6879923-.2866634-1.2899765-.6306544-1.8059707-1.0319832-.5159942-.4013289-.9214122-.8886494-1.216266-1.4619763s-.4422785-1.2940699-.4422785-2.1622507c0-.704373.1433295-1.3473085.429993-1.9288258.2866634-.5815173.6716057-1.0811232 1.1548384-1.4988328s1.0483607-.7371298 1.6954011-.9582702c.6470403-.2211404 1.3309271-.3317089 2.051681-.3317089.7698961 0 1.4906391.1310442 2.1622506.3931365s1.2531201.630654 1.7445431 1.1056963c.4914231.4750423.8763654 1.0401703 1.1548384 1.6954011.2784731.6552307.4177075 1.384164.4177075 2.1868216h-2.8256684c0-.8517999-.2293273-1.5397819-.6879888-2.0639665-.4586616-.5241846-1.0893117-.7862729-1.8919694-.7862729-.704373 0-1.3104523.1801857-1.8182562.5405626-.5078038.3603769-.7617019.9091245-.7617019 1.646259 0 .3439962.0696172.651131.2088538.9214137.1392365.2702826.3276125.5037051.5651336.7002743.2375212.1965692.5037047.3685647.7985585.5159916.2948539.147427.6060838.2784711.9336992.3931365.6716115.2457116 1.3554983.5077999 2.051681.786273.6961826.278473 1.3309279.622464 1.9042548 1.0319832.5733269.4095193 1.0401718.9009349 1.4005487 1.4742618s.5405627 1.2694992.5405627 2.0885376c0 .8845615-.155615 1.6626363-.4668496 2.3342478s-.7371282 1.2367396-1.2776936 1.6954011c-.5405653.4586615-1.1671203.8026525-1.8796838 1.0319833-.7125634.2293307-1.4701626.3439944-2.2728202.3439944-.7862769 0-1.5356859-.1351393-2.2482493-.405422s-1.3391184-.6634152-1.8796838-1.1794094c-.5405653-.5159943-.9746492-1.1466444-1.3022646-1.8919694-.3276153-.7453249-.4914206-1.6012072-.4914206-2.5676726z"/><path d="m54.9122298 60.4563615c0 1.130273.3112299 1.9984407.9336991 2.6045291.6224692.6060885 1.4251148.9091281 2.407961.9091281.3931384 0 .7617002-.0614269 1.1056963-.1842827s.6429407-.2948512.8968426-.5159916.4545633-.4873239.6019902-.7985585.2211393-.6634158.2211393-1.0565543c0-.4422807-.0859977-.8108425-.2579958-1.1056963-.1719981-.2948539-.3931351-.5446568-.6634178-.7494164-.2702827-.2047597-.5651321-.3767551-.8845571-.5159917-.319425-.1392365-.6265598-.2579953-.9214136-.3562799-.7862769-.2784731-1.5234004-.5610371-2.2113927-.8477005-.6879923-.2866635-1.2899765-.6306545-1.8059707-1.0319833s-.9214122-.8886494-1.216266-1.4619763-.4422785-1.2940699-.4422785-2.1622506c0-.7043731.1433295-1.3473086.429993-1.9288259.2866634-.5815173.6716057-1.0811232 1.1548384-1.4988328s1.0483607-.7371298 1.6954011-.9582702c.6470403-.2211403 1.3309271-.3317089 2.051681-.3317089.7698961 0 1.4906391.1310442 2.1622506.3931365s1.2531201.6306541 1.7445431 1.1056964c.4914231.4750422.8763654 1.0401703 1.1548384 1.695401.2784731.6552308.4177075 1.384164.4177075 2.1868217h-2.8256684c0-.8518-.2293273-1.5397819-.6879888-2.0639665-.4586616-.5241846-1.0893117-.786273-1.8919694-.786273-.704373 0-1.3104523.1801858-1.8182562.5405627-.5078038.3603769-.7617019.9091244-.7617019 1.646259 0 .3439961.0696172.6511309.2088538.9214136.1392365.2702827.3276125.5037051.5651336.7002744.2375212.1965692.5037047.3685647.7985585.5159916s.6060838.2784711.9336992.3931365c.6716115.2457115 1.3554983.5077999 2.051681.7862729.6961826.2784731 1.3309279.6224641 1.9042548 1.0319833s1.0401718.9009349 1.4005487 1.4742618.5405626 1.2694991.5405626 2.0885375c0 .8845615-.1556149 1.6626364-.4668495 2.3342479s-.7371282 1.2367395-1.2776936 1.695401c-.5405653.4586616-1.1671203.8026525-1.8796838 1.0319833-.7125634.2293308-1.4701626.3439944-2.2728202.3439944-.7862769 0-1.5356859-.1351393-2.2482493-.405422s-1.3391184-.6634152-1.8796838-1.1794094c-.5405653-.5159942-.9746492-1.1466443-1.3022646-1.8919693-.3276153-.745325-.4914206-1.6012073-.4914206-2.5676726z" transform="matrix(.99862953 .05233596 -.05233596 .99862953 3.087923 -2.956492)"/></g></g></svg>