<svg id="Layer_1" data-name="Layer 1" xmlns="http://www.w3.org/2000/svg" viewBox="0 0 100 100"><defs><style>.cls-1{fill:#fcd9e3;stroke:#111;stroke-width:2px;}.cls-1,.cls-2{fill-rule:evenodd;}.cls-2{fill:#111;}</style></defs><title>logo-icon</title><path class="cls-1" d="M30.5247,5,98.7318,54.4012V95H55.0339V76.339H30.5247V54.4012H1.2682V31.8463Z"/><path class="cls-2" d="M28.2119,43.2686a8.59,8.59,0,0,1-1.2,2.78,9.234,9.234,0,0,1-2.1073,2.2536A9.7257,9.7257,0,0,1,22.0072,49.81a11.13,11.13,0,0,1-3.5121.5414,11.0587,11.0587,0,0,1-4.5072-.878,10.1571,10.1571,0,0,1-5.5169-5.78,11.6348,11.6348,0,0,1-.0293-8.1217,10.4042,10.4042,0,0,1,2.078-3.4243,10.0311,10.0311,0,0,1,7.6242-3.278,12.0706,12.0706,0,0,1,4.0535.6293,9.5864,9.5864,0,0,1,3.0292,1.6975,8.2,8.2,0,0,1,2.0049,2.517,9.6979,9.6979,0,0,1,.98,3.117H24.6706a5.9456,5.9456,0,0,0-.6878-1.9609A5.73,5.73,0,0,0,22.695,33.303,5.9151,5.9151,0,0,0,20.88,32.264a6.6373,6.6373,0,0,0-2.2975-.3805,7.402,7.402,0,0,0-3.1463.6439A6.9044,6.9044,0,0,0,13.11,34.24a7.5478,7.5478,0,0,0-1.4341,2.4585,8.4913,8.4913,0,0,0-.4976,2.8828,8.6457,8.6457,0,0,0,.5122,2.9853,7.33,7.33,0,0,0,1.4926,2.4731,6.9041,6.9041,0,0,0,2.4292,1.6829,8.44,8.44,0,0,0,3.3219.6147,5.4129,5.4129,0,0,0,1.7707-.3074,6.4648,6.4648,0,0,0,1.6536-.8487A6.1739,6.1739,0,0,0,23.69,44.8929a5.0391,5.0391,0,0,0,.8341-1.6243Z"/><path class="cls-2" d="M42.9037,62.3436a4.3545,4.3545,0,0,0,1.1718,3.2685,4.15,4.15,0,0,0,3.0217,1.1408,4.0971,4.0971,0,0,0,1.3876-.2312,3.4707,3.4707,0,0,0,1.1254-.6475,2.9921,2.9921,0,0,0,1.033-2.328,2.7172,2.7172,0,0,0-.3238-1.3876,3.1746,3.1746,0,0,0-.8325-.9405,5.4178,5.4178,0,0,0-1.11-.6475q-.6014-.2621-1.1563-.4471-1.48-.5241-2.7751-1.0638a9.8222,9.8222,0,0,1-2.2664-1.295A5.4686,5.4686,0,0,1,40.6528,55.93a5.9026,5.9026,0,0,1-.555-2.7134,5.3994,5.3994,0,0,1,.54-2.42,5.9178,5.9178,0,0,1,1.4492-1.8809,6.3609,6.3609,0,0,1,2.1276-1.2026,7.9065,7.9065,0,0,1,2.5747-.4162,7.3976,7.3976,0,0,1,2.7134.4933,6.5212,6.5212,0,0,1,2.1893,1.3876,6.4089,6.4089,0,0,1,1.4492,2.1276,6.9473,6.9473,0,0,1,.5242,2.7442H50.119a3.7912,3.7912,0,0,0-.8633-2.59,2.9906,2.9906,0,0,0-2.3743-.9867,3.84,3.84,0,0,0-2.2818.6784,2.3635,2.3635,0,0,0-.9558,2.0659,2.4875,2.4875,0,0,0,.2621,1.1563,2.787,2.787,0,0,0,.7092.8788,5.2355,5.2355,0,0,0,1.0021.6475,10.0174,10.0174,0,0,0,1.1717.4934q1.2642.4624,2.5747.9867a11.3285,11.3285,0,0,1,2.39,1.295,6.5341,6.5341,0,0,1,1.7576,1.85,4.828,4.828,0,0,1,.6784,2.6209,6.899,6.899,0,0,1-.5859,2.9293A6.1286,6.1286,0,0,1,52,68.2022a6.8436,6.8436,0,0,1-2.3588,1.295,9.2541,9.2541,0,0,1-2.8522.4317,7.8878,7.8878,0,0,1-2.8214-.5088,6.9475,6.9475,0,0,1-2.3588-1.48,7.2932,7.2932,0,0,1-1.6342-2.3743,7.9372,7.9372,0,0,1-.6167-3.2222Z"/><path class="cls-2" d="M69.3557,80.625a4.3547,4.3547,0,0,0,.9991,3.3253,4.15,4.15,0,0,0,2.9579,1.2974,4.0944,4.0944,0,0,0,1.3977-.1583,3.4718,3.4718,0,0,0,1.1578-.5877,2.9917,2.9917,0,0,0,1.1534-2.2708,2.7172,2.7172,0,0,0-.2507-1.4026,3.1739,3.1739,0,0,0-.7822-.9827,5.4021,5.4021,0,0,0-1.0746-.7047q-.5867-.2932-1.1313-.507-1.4506-.6011-2.7156-1.2076a9.8211,9.8211,0,0,1-2.1955-1.4119,5.4706,5.4706,0,0,1-1.4282-1.912,5.9041,5.9041,0,0,1-.4122-2.7388,5.4,5.4,0,0,1,.6655-2.3889,5.9183,5.9183,0,0,1,1.5457-1.8025,6.3593,6.3593,0,0,1,2.1876-1.09,7.9053,7.9053,0,0,1,2.5929-.281,7.397,7.397,0,0,1,2.6839.6347,6.5224,6.5224,0,0,1,2.1137,1.5,6.411,6.411,0,0,1,1.3359,2.2005,6.95,6.95,0,0,1,.38,2.768L76.9952,72.72a3.7912,3.7912,0,0,0-.7266-2.6317,2.9908,2.9908,0,0,0-2.3194-1.11,3.84,3.84,0,0,0-2.3141.5581,2.3631,2.3631,0,0,0-1.0627,2.013,2.4885,2.4885,0,0,0,.2012,1.1684,2.7884,2.7884,0,0,0,.6622.9147,5.2381,5.2381,0,0,0,.9669.6991,10.016,10.016,0,0,0,1.1443.554q1.2383.528,2.52,1.12a11.3334,11.3334,0,0,1,2.3186,1.4183,6.5344,6.5344,0,0,1,1.6583,1.94,4.8273,4.8273,0,0,1,.54,2.6528,6.8985,6.8985,0,0,1-.7384,2.8946,6.1263,6.1263,0,0,1-1.7125,2.0407,6.8428,6.8428,0,0,1-2.4234,1.17,9.2549,9.2549,0,0,1-2.8709.2818,7.8893,7.8893,0,0,1-2.7908-.6557A6.9483,6.9483,0,0,1,67.77,86.146,7.2945,7.2945,0,0,1,66.2618,83.69a7.9384,7.9384,0,0,1-.4472-3.25Z"/></svg>