<svg height="23" viewBox="0 0 171 23" width="171" xmlns="http://www.w3.org/2000/svg"><path d="m175.14 64.25c-.240001 1.0200051-.649997 1.9699956-1.23 2.85s-1.299996 1.6499967-2.16 2.31-1.849994 1.1749981-2.97 1.545-2.319994.555-3.6.555c-1.720009 0-3.259993-.299997-4.62-.9s-2.514995-1.404995-3.465-2.415-1.679997-2.1799933-2.19-3.51c-.510003-1.3300066-.765-2.7349926-.765-4.215 0-1.4200071.244998-2.7899934.735-4.11s1.199995-2.4899949 2.13-3.51 2.049993-1.8349969 3.36-2.445 2.794992-.915 4.455-.915c1.560008 0 2.944994.2149978 4.155.645 1.210006.4300021 2.244996 1.0099963 3.105 1.74s1.544997 1.589995 2.055 2.58c.510003.9900049.844999 2.0549943 1.005 3.195h-3.63c-.120001-.7200036-.354998-1.3899969-.705-2.01s-.789997-1.1549977-1.32-1.605-1.149996-.8049987-1.86-1.065-1.494996-.39-2.355-.39c-1.200006 0-2.274995.2199978-3.225.66s-1.744997 1.0249964-2.385 1.755c-.640003.7300037-1.129998 1.5699953-1.47 2.52-.340002.9500048-.51 1.9349949-.51 2.955 0 1.0800054.174998 2.0999952.525 3.06s.859997 1.8049963 1.53 2.535c.670003.7300036 1.499995 1.3049979 2.49 1.725s2.124994.63 3.405.63c.600003 0 1.204997-.1049989 1.815-.315.610003-.210001 1.174997-.4999981 1.695-.87s.974998-.8099974 1.365-1.32.674999-1.064997.855-1.665zm5.82-.12c0 1.3800069.379996 2.4399963 1.14 3.18s1.739994 1.11 2.94 1.11c.480002 0 .929998-.0749993 1.35-.225s.784998-.3599987 1.095-.63c.310002-.2700014.554999-.5949981.735-.975s.27-.8099976.27-1.29c0-.5400027-.104999-.9899982-.315-1.35s-.479998-.6649987-.81-.915-.689998-.4599991-1.08-.63c-.390002-.1700008-.764998-.3149994-1.125-.435-.960005-.3400017-1.859996-.6849983-2.7-1.035-.840004-.3500018-1.574997-.7699975-2.205-1.26-.630003-.4900024-1.124998-1.0849965-1.485-1.785s-.54-1.5799947-.54-2.64c0-.8600043.174998-1.6449965.525-2.355.350002-.7100036.819997-1.3199974 1.41-1.83.590003-.5100025 1.279996-.8999987 2.07-1.17s1.624996-.405 2.505-.405c.940005 0 1.819996.1599984 2.64.48s1.529997.7699971 2.13 1.35 1.069998 1.269996 1.41 2.07.51 1.6899951.51 2.67h-3.45c0-1.0400052-.279997-1.8799968-.84-2.52s-1.329995-.96-2.31-.96c-.860004 0-1.599997.2199978-2.22.66s-.93 1.1099955-.93 2.01c0 .4200021.084999.7949984.255 1.125s.399999.6149988.69.855.614998.4499991.975.63.739998.3399993 1.14.48c.820004.3000015 1.654996.6199983 2.505.96s1.624997.7599975 2.325 1.26c.700004.5000025 1.269998 1.0999965 1.71 1.8s.66 1.549995.66 2.55c0 1.0800054-.189998 2.0299959-.57 2.85s-.899997 1.5099972-1.56 2.07-1.424996.9799986-2.295 1.26-1.794995.42-2.775.42c-.960005 0-1.874996-.1649983-2.745-.495-.870004-.3300016-1.634997-.8099968-2.295-1.44s-1.189998-1.3999955-1.59-2.31-.6-1.9549941-.6-3.135zm17.07 0c0 1.3800069.379996 2.4399963 1.14 3.18s1.739994 1.11 2.94 1.11c.480002 0 .929998-.0749993 1.35-.225s.784998-.3599987 1.095-.63c.310002-.2700014.554999-.5949981.735-.975s.27-.8099976.27-1.29c0-.5400027-.104999-.9899982-.315-1.35s-.479998-.6649987-.81-.915-.689998-.4599991-1.08-.63c-.390002-.1700008-.764998-.3149994-1.125-.435-.960005-.3400017-1.859996-.6849983-2.7-1.035-.840004-.3500018-1.574997-.7699975-2.205-1.26-.630003-.4900024-1.124998-1.0849965-1.485-1.785s-.54-1.5799947-.54-2.64c0-.8600043.174998-1.6449965.525-2.355.350002-.7100036.819997-1.3199974 1.41-1.83.590003-.5100025 1.279996-.8999987 2.07-1.17s1.624996-.405 2.505-.405c.940005 0 1.819996.1599984 2.64.48s1.529997.7699971 2.13 1.35 1.069998 1.269996 1.41 2.07.51 1.6899951.51 2.67h-3.45c0-1.0400052-.279997-1.8799968-.84-2.52s-1.329995-.96-2.31-.96c-.860004 0-1.599997.2199978-2.22.66s-.93 1.1099955-.93 2.01c0 .4200021.084999.7949984.255 1.125s.399999.6149988.69.855.614998.4499991.975.63.739998.3399993 1.14.48c.820004.3000015 1.654996.6199983 2.505.96s1.624997.7599975 2.325 1.26 1.269998 1.0999965 1.71 1.8.66 1.549995.66 2.55c0 1.0800054-.189998 2.0299959-.57 2.85s-.899997 1.5099972-1.56 2.07-1.424996.9799986-2.295 1.26-1.794995.42-2.775.42c-.960005 0-1.874996-.1649983-2.745-.495-.870004-.3300016-1.634997-.8099968-2.295-1.44s-1.189998-1.3999955-1.59-2.31-.6-1.9549941-.6-3.135zm23.88-2.01c-.1-.7600038-.394998-1.3749976-.885-1.845-.490002-.4700023-1.294994-.705-2.415-.705-.640003 0-1.189998.1199988-1.65.36s-.849998.5649979-1.17.975-.554999.8799973-.705 1.41c-.150001.5300026-.225 1.094997-.225 1.695s.074999 1.1699973.225 1.71.384998 1.009998.705 1.41.729997.7199988 1.23.96c.500002.2400012 1.099996.36 1.8.36.960005 0 1.664998-.199998 2.115-.6s.784999-.9499965 1.005-1.65h3.27c-.120001.7200036-.339998 1.3949969-.66 2.025-.320002.6300032-.754997 1.1799976-1.305 1.65s-1.209996.8349987-1.98 1.095-1.664995.39-2.685.39c-1.140006 0-2.144996-.2049979-3.015-.615-.870004-.410002-1.599997-.9549966-2.19-1.635s-1.034999-1.4599956-1.335-2.34-.45-1.7999952-.45-2.76c0-.9400047.149999-1.8549956.45-2.745s.744997-1.6749966 1.335-2.355 1.314996-1.2249979 2.175-1.635c.860004-.410002 1.859994-.615 3-.615s2.114996.1599984 2.925.48 1.479997.7349975 2.01 1.245c.530003.5100026.929999 1.0899968 1.2 1.74s.435 1.3149966.495 1.995zm12.84 9.24c-1.120006 0-2.129996-.194998-3.03-.585-.900004-.3900019-1.669997-.9249966-2.31-1.605s-1.134998-1.4599956-1.485-2.34-.525-1.819995-.525-2.82c0-.9800049.174998-1.9149955.525-2.805s.844997-1.6749966 1.485-2.355 1.409996-1.214998 2.31-1.605 1.909994-.585 3.03-.585 2.134995.194998 3.045.585 1.689997.9249966 2.34 1.605 1.149998 1.4649955 1.5 2.355.525 1.8249951.525 2.805c0 1.000005-.174998 1.9399956-.525 2.82s-.849997 1.6599966-1.5 2.34-1.429995 1.2149981-2.34 1.605c-.910005.390002-1.924994.585-3.045.585zm0-2.91c.620003 0 1.184997-.1199988 1.695-.36s.944998-.559998 1.305-.96.639999-.8699973.84-1.41.3-1.109997.3-1.71-.099999-1.1699973-.3-1.71-.479998-1.009998-.84-1.41-.794997-.7199988-1.305-.96-1.074997-.36-1.695-.36-1.179997.1199988-1.68.36-.929998.559998-1.29.96-.634999.8699973-.825 1.41-.285 1.109997-.285 1.71.094999 1.1699973.285 1.71.464998 1.009998.825 1.41.789997.7199988 1.29.96 1.059997.36 1.68.36zm10.74-11.43h3.27v1.95c.440002-.7600038 1.049996-1.334998 1.83-1.725s1.689995-.585 2.73-.585c1.020005 0 1.874997.1699983 2.565.51s1.234998.7999971 1.635 1.38c.340002.5200026.574999 1.0999968.705 1.74s.195 1.4399952.195 2.4v8.31h-3.27v-7.23c0-.600003-.049999-1.1599974-.15-1.68-.1-.5200026-.264999-.9649981-.495-1.335-.230001-.3700018-.539998-.6649989-.93-.885s-.874997-.33-1.455-.33c-1.140006 0-1.984997.4049959-2.535 1.215-.550003.810004-.825 1.814994-.825 3.015v7.23h-3.27zm25.26-4.08c-.220001-.0600003-.449999-.1099998-.69-.15s-.489999-.06-.75-.06-.519999.0099999-.78.03-.494999.0999993-.705.24-.384999.3599985-.525.66-.21.7199973-.21 1.26v2.1h3.66v2.73h-3.66v11.25h-3.27v-11.25h-2.85v-2.73h2.85v-1.74c0-1.3400067.184998-2.3749964.555-3.105.370002-.7300037.819997-1.2699983 1.35-1.62s1.084997-.5599997 1.665-.63c.580003-.0700004 1.069998-.105 1.47-.105.420002 0 .794998.0349996 1.125.105.330002.0700003.584999.1549995.765.255zm4.59 12.88c0-1.5866746.548328-2.9283279 1.645-4.025 1.096672-1.0966722 2.414992-1.645 3.955-1.645 1.586675 0 2.928328.5483278 4.025 1.645 1.096672 1.0966721 1.645 2.4383254 1.645 4.025 0 1.5400077-.548328 2.8583279-1.645 3.955s-2.438325 1.645-4.025 1.645c-1.540008 0-2.858328-.5483279-3.955-1.645s-1.645-2.4149923-1.645-3.955zm21.11-12.73v5.94h8.67v3.09h-8.67v5.79h8.67v3.09h-12.12v-21h12.12v3.09zm12.75-3.09h3.45v13.98c0 .600003.094999 1.1699973.285 1.71s.464998 1.009998.825 1.41.789998.7199988 1.29.96c.500003.2400012 1.059997.36 1.68.36s1.184997-.1199988 1.695-.36.944998-.559998 1.305-.96.639999-.8699973.84-1.41.3-1.109997.3-1.71v-13.98h3.45v13.98c0 1.0200051-.179998 1.9849955-.54 2.895s-.869997 1.7099965-1.53 2.4c-.660003.6900034-1.454995 1.234998-2.385 1.635s-1.974994.6-3.135.6c-1.140006 0-2.169995-.199998-3.09-.6s-1.709997-.9449966-2.37-1.635c-.660003-.6900035-1.169998-1.4899955-1.53-2.4s-.54-1.8749949-.54-2.895z" fill="#111" fill-rule="evenodd" transform="translate(-154 -49)"/></svg>