<svg width="1251" height="775" xmlns="http://www.w3.org/2000/svg" xmlns:xlink="http://www.w3.org/1999/xlink"><defs><path d="M358.443 390.122c26.396 0 47.863 21.105 48.448 47.36h-96.895c.584-26.255 22.051-47.36 48.447-47.36z" id="a"/><path d="M861.949 665.464c52.947 0 96.008 42.333 97.181 94.999H764.768c1.173-52.666 44.233-94.999 97.18-94.999z" id="b"/><path d="M161.736 657.764c30.765 0 55.785 24.598 56.467 55.2H105.268c.682-30.602 25.702-55.2 56.468-55.2z" id="c"/></defs><g transform="translate(.244)" fill="none" fill-rule="evenodd"><path d="M317.419 126.029h28.34l-8.32 77.74c4.507-6.587 10.313-11.57 17.42-14.95 7.107-3.38 15.253-5.07 24.44-5.07 8.84 0 16.077 1.473 21.71 4.42 5.633 2.946 9.923 6.933 12.87 11.96 2.773 4.68 4.333 10.01 4.68 15.99.347 5.98.087 12.61-.78 19.89l-7.54 72.02h-28.34l6.5-62.66c.52-5.2.607-10.054.26-14.56-.347-4.507-1.343-8.364-2.99-11.57-1.647-3.207-4.03-5.764-7.15-7.67-3.12-1.907-7.193-2.86-12.22-2.86-10.053 0-17.853 3.51-23.4 10.53-5.547 7.02-8.84 15.73-9.88 26.13l-6.5 62.66h-28.34l19.24-182z" stroke="#111" stroke-width="6.5" fill="#FFF" fill-rule="nonzero"/><path stroke="#191919" stroke-width="9" fill="#FFF" d="M1035.54 61.142l125.047 90.569v74.431h-80.113V191.93h-44.933v-40.219h-53.637v-41.35z"/><path fill="#191919" d="M45.113 520.315v-53.648h39.57v-25.436h67.63v49.295l-49.885 60.972z"/><use stroke="#111" stroke-width="5.76" fill="#FFF" transform="rotate(-180 358.443 413.802)" xlink:href="#a"/><path fill="#191919" d="M0 27.542h67.2v67.2H0z"/><path stroke="#191919" stroke-width="7.2" fill="#FFF" fill-rule="nonzero" d="M1099.787 395.965h60.8v200.8h-60.8z"/><use stroke="#191919" stroke-width="9" fill="#FFF" transform="rotate(-180 861.949 712.964)" xlink:href="#b"/><use stroke="#191919" stroke-width="7.2" fill="#FFF" transform="rotate(-180 161.736 685.364)" xlink:href="#c"/><circle fill="#191919" cx="1150" cy="692.31" r="22.08"/><circle fill="#191919" cx="556.124" cy="20.368" r="20.368"/><circle fill="#191919" cx="1223.041" cy="108.636" r="27.6"/><path fill="#111" fill-rule="nonzero" d="M191.033 143.771h-46.8v-46.54h147.94v46.54h-46.8v135.46h-54.34z"/><text font-family="Helvetica" font-size="260" fill="#111"><tspan x="433.901" y="282.636">A</tspan></text><path stroke="#111" stroke-width="6.5" fill="#FFF" fill-rule="nonzero" d="M706.254 249.296v-140.66h23.66v182h-26.26l-81.9-140.66v140.66h-23.66v-182h26.26z"/><text font-family="Helvetica" font-size="260" fill="#111"><tspan x="764.768" y="257.942">k</tspan></text><path d="M710.118 582.73l-9.75 92.712h-21.685l1.393-12.932c-7.162 10.213-17.84 15.32-32.031 15.32-6.765 0-12.302-1.128-16.613-3.383-4.31-2.255-7.593-5.305-9.848-9.152-2.122-3.58-3.315-7.66-3.58-12.235-.266-4.576-.067-9.65.596-15.22l5.77-55.11h21.685l-4.973 47.948c-.398 3.98-.465 7.693-.2 11.141.266 3.449 1.029 6.4 2.289 8.854 1.26 2.453 3.083 4.41 5.47 5.869 2.388 1.459 5.505 2.188 9.351 2.188 7.693 0 13.662-2.686 17.906-8.057 4.244-5.372 6.764-12.037 7.56-19.995l4.974-47.947h21.686zm-271.504-22.083l-69.036 139.266h-46.355l23.874-48.942-46.754-90.324h48.743l22.084 49.738 21.288-49.738z" stroke="#111" stroke-width="6.5" fill="#FFF" fill-rule="nonzero"/><path d="M508.849 774.186c-18.09 0-33.946-3.43-47.566-10.293-13.62-6.862-24.12-16.48-31.503-28.851-7.382-12.373-11.073-26.669-11.073-42.888 0-16.22 3.691-30.515 11.073-42.887 7.382-12.373 17.883-21.938 31.503-28.696 13.62-6.758 29.475-10.137 47.566-10.137 18.09 0 33.998 3.379 47.722 10.137 13.724 6.758 24.277 16.323 31.659 28.696 7.382 12.372 11.072 26.668 11.072 42.887 0 16.22-3.69 30.515-11.072 42.888-7.382 12.372-17.935 21.989-31.659 28.851-13.724 6.862-29.631 10.293-47.722 10.293zm0-50.53c8.941 0 16.011-2.858 21.21-8.577 5.198-5.718 7.798-13.36 7.798-22.925 0-9.565-2.6-17.207-7.798-22.925-5.199-5.719-12.269-8.578-21.21-8.578s-16.011 2.86-21.21 8.578c-5.198 5.718-7.797 13.36-7.797 22.925 0 9.565 2.599 17.207 7.797 22.925 5.199 5.719 12.269 8.578 21.21 8.578z" fill="#111" fill-rule="nonzero"/></g></svg>