<svg width="319" height="372" xmlns="http://www.w3.org/2000/svg" xmlns:xlink="http://www.w3.org/1999/xlink"><defs><path d="M361.99 334.036c19.06 0 34.562 15.24 34.984 34.199h-69.97c.423-18.96 15.924-34.2 34.985-34.2z" id="a"/><path d="M113.04 155.609c9.502 0 17.23 7.597 17.44 17.05H95.599c.21-9.453 7.939-17.05 17.442-17.05z" id="b"/></defs><g transform="translate(-94.45 1.75)" fill="none" fill-rule="evenodd"><use stroke="#191919" stroke-width="3.24" fill="#FFF" transform="rotate(-180 361.99 351.136)" xlink:href="#a"/><circle fill="#191919" cx="193.332" cy="16.332" r="7.332"/><text font-family="Helvetica" font-size="93.6" fill="#111"><tspan x="220.404" y="117.194">A</tspan></text><path stroke="#111" stroke-width="2.34" fill="#FFF" fill-rule="nonzero" d="M318.451 104.911V54.274h8.518v65.52h-9.454l-29.484-50.638v50.638h-8.518v-65.52h9.454z"/><text font-family="Helvetica" font-size="93.6" fill="#111"><tspan x="339.516" y="108.304">k</tspan></text><path d="M317.782 296.199l-3.51 33.376h-7.807l.502-4.656c-2.579 3.677-6.422 5.515-11.531 5.515-2.436 0-4.429-.406-5.98-1.217-1.553-.812-2.734-1.91-3.546-3.295-.764-1.29-1.194-2.757-1.29-4.405-.095-1.647-.023-3.473.216-5.479l2.077-19.84h7.806l-1.79 17.262a22.811 22.811 0 00-.072 4.01c.096 1.242.37 2.304.824 3.188a5.242 5.242 0 001.97 2.113c.859.525 1.981.788 3.366.788 2.77 0 4.918-.967 6.446-2.901 1.528-1.934 2.435-4.333 2.721-7.198l1.791-17.261h7.807z" stroke="#111" stroke-width="2.34" fill="#FFF" fill-rule="nonzero"/><path d="M243.06 357.174c-6.513 0-12.221-1.235-17.124-3.706-4.904-2.47-8.684-5.932-11.341-10.386-2.658-4.454-3.987-9.6-3.987-15.44 0-5.839 1.33-10.985 3.987-15.44 2.657-4.453 6.437-7.897 11.34-10.33 4.904-2.432 10.612-3.649 17.124-3.649 6.513 0 12.24 1.217 17.18 3.65 4.94 2.432 8.74 5.876 11.397 10.33 2.658 4.454 3.987 9.6 3.987 15.44 0 5.838-1.33 10.985-3.987 15.439-2.657 4.454-6.456 7.916-11.397 10.386-4.94 2.47-10.667 3.706-17.18 3.706zm0-18.19c3.218 0 5.763-1.03 7.635-3.089 1.871-2.058 2.807-4.81 2.807-8.253 0-3.443-.936-6.194-2.807-8.253-1.872-2.058-4.417-3.088-7.636-3.088-3.219 0-5.764 1.03-7.635 3.088-1.872 2.059-2.807 4.81-2.807 8.253 0 3.444.935 6.195 2.807 8.253 1.871 2.06 4.416 3.088 7.635 3.088z" fill="#111" fill-rule="nonzero"/><path stroke="#191919" stroke-width="2" fill="#FFF" d="M385.643.304l25.767 18.663v15.337h-16.508v-7.05h-9.26v-8.287H374.59v-8.521z"/><path stroke="#191919" stroke-width="2.592" fill="#FFF" fill-rule="nonzero" d="M379.923 157.712h21.888V230h-21.888z"/><circle fill="#191919" cx="123.005" cy="330.434" r="7.949"/><circle fill="#191919" cx="402.936" cy="101.936" r="9.936"/><path d="M178.47 44.535h10.203l-2.995 27.986c1.622-2.37 3.712-4.165 6.27-5.382 2.56-1.216 5.492-1.825 8.8-1.825 3.182 0 5.787.53 7.815 1.591 2.028 1.061 3.572 2.496 4.633 4.306.999 1.685 1.56 3.604 1.685 5.756.125 2.153.031 4.54-.28 7.16l-2.715 25.928h-10.203l2.34-22.558c.187-1.872.219-3.619.094-5.241-.125-1.623-.484-3.01-1.077-4.165a6.85 6.85 0 00-2.574-2.762c-1.123-.686-2.59-1.03-4.399-1.03-3.619 0-6.427 1.264-8.424 3.792-1.997 2.527-3.182 5.662-3.557 9.406l-2.34 22.558h-10.202l6.926-65.52z" stroke="#111" stroke-width="2.34" fill="#FFF" fill-rule="nonzero"/><use stroke="#111" stroke-width="2.074" fill="#FFF" transform="rotate(-180 113.04 164.134)" xlink:href="#b"/><path fill="#191919" d="M96.696 9h24.192v24.192H96.696z"/><path fill="#111" fill-rule="nonzero" d="M133.078 66.922H116.23V50.168h53.258v16.754H152.64v48.766h-19.562z"/><path stroke="#111" stroke-width="2.34" fill="#FFF" fill-rule="nonzero" d="M201.651 300.302l-24.853 50.136H160.11l8.595-17.62-16.831-32.516h17.547l7.95 17.906 7.664-17.906z"/></g></svg>