<svg viewBox="0 0 600 400" xmlns="http://www.w3.org/2000/svg"><g fill="#231f20"><path d="m216.8965 184.0188h-70.3919a1.0074 1.0074 0 0 0 -.8305.94v7.9387a1.0379 1.0379 0 0 0 .8427 1.02h70.38a.9647.9647 0 0 0 .9292-.9992l-.001-.0206v-7.9387a.94.94 0 0 0 -.9285-.9402z"/><path d="m216.8965 163.1705h-70.3919a1.0076 1.0076 0 0 0 -.8428.9282v7.9387a1.0382 1.0382 0 0 0 .8428 1.0259h70.3919a.9709.9709 0 0 0 .929-1.0112l-.0008-.0147v-7.9387a.94.94 0 0 0 -.9282-.9282z"/><path d="m216.8965 225.5321h-70.3919a1.0076 1.0076 0 0 0 -.8305.9527v7.9387a1.032 1.032 0 0 0 .8427 1.02h70.38a.9648.9648 0 0 0 .9292-.9993l-.001-.02v-7.9387a.94.94 0 0 0 -.928-.9527z"/><path d="m71.783 163.2621h-7.9388a1.032 1.032 0 0 0 -1.02.8366v70.392a.9649.9649 0 0 0 .9993.9291l.02-.0009h7.9395a.94.94 0 0 0 .9282-.9282v-70.392a1.0259 1.0259 0 0 0 -.9282-.8366z"/><path d="m134.1385 163.2621h-7.9385a1.0381 1.0381 0 0 0 -1.0259.8366v70.392a.9709.9709 0 0 0 1.0112.9289l.0147-.0007h7.9387a.94.94 0 0 0 .9282-.9282v-70.392a1.0014 1.0014 0 0 0 -.9284-.8366z"/><path d="m92.5457 163.2621h-7.9387a1.032 1.032 0 0 0 -1.02.8366v70.392a.9648.9648 0 0 0 .9993.9291l.02-.0009h7.9387a.9405.9405 0 0 0 .9283-.9282v-70.392a1.0259 1.0259 0 0 0 -.9276-.8366z"/><path d="m216.8965 204.7754h-70.3919a1.0076 1.0076 0 0 0 -.8305.9466v7.9387a1.0379 1.0379 0 0 0 .8427 1.02h70.38a.9647.9647 0 0 0 .9292-.9993l-.001-.02v-7.9394a.94.94 0 0 0 -.9285-.9466z"/><path d="m113.3085 163.2621h-7.9385a1.038 1.038 0 0 0 -1.02.8366v70.392a.9648.9648 0 0 0 .9993.9291l.02-.0009h7.9387a.9405.9405 0 0 0 .9283-.9282v-70.392a1.0016 1.0016 0 0 0 -.9278-.8366z"/><path d="m297.01 234.0815c-5.2091-11.3768-10.65-23.2055-16.0973-35.0891s-10.8821-23.7-16.0912-35.0891a1.038 1.038 0 0 0 -.916-.5252 1.2213 1.2213 0 0 0 -.9954.5435l-32.1819 70.1784a1.0445 1.0445 0 0 0 .1038.9405 1.0019 1.0019 0 0 0 .8428.3786h9.044a1.2213 1.2213 0 0 0 .9587-.66l7.42-16.311h29.5564l.0489.1039c1.0259 2.29 2.119 4.6655 3.1815 6.9677 1.4168 3.0534 2.8763 6.2594 4.1954 9.2639a1.1724 1.1724 0 0 0 .9526.6106h9.0377a1.0133 1.0133 0 0 0 .8488-.3786 1.0563 1.0563 0 0 0 .0912-.9341zm-43.8274-25.0375 10.6867-23.944.1649.36 10.534 23.5841z"/><path d="m326.237 191.2186a17.2026 17.2026 0 0 0 -13.0622 5.8441l-.3053.33v-33.2879a1.0321 1.0321 0 0 0 -1.02-.8366h-8.0119a1.0321 1.0321 0 0 0 -1.026.8366v70.3859a.971.971 0 0 0 1.0113.9289l.0147-.0007h7.9387a.971.971 0 0 0 1.0251-.9136l.0008-.0146v-3.7307l.2992.3114a18.1757 18.1757 0 0 0 12.8241 5.7586c14.2042 0 20.6712-11.9569 20.6712-23.0711-.0549-10.9437-7.1692-22.5403-20.3597-22.5403zm-1.9419 36.8051c-7.8654 0-11.9813-7.096-11.9813-14.1065 0-6.7174 4.2014-13.8317 11.9813-13.8317 7.328 0 12.4455 5.6914 12.4455 13.8317 0 7.0228-3.8472 14.1065-12.4455 14.1065z"/><path d="m361.9918 163.2682h-7.9387a1.0321 1.0321 0 0 0 -1.026.8366v70.3859a.9648.9648 0 0 0 .9989.9295l.0271-.0013h7.9387a.94.94 0 0 0 .9282-.9282v-70.3859a1.02 1.02 0 0 0 -.9282-.8366z"/><path d="m390.8338 191.2186c-12.9157 0-20.94 8.8364-20.94 23.0711 0 13.2515 8.69 22.5154 21.1292 22.5154a21.6969 21.6969 0 0 0 19.59-11.8043l.0671-.1343c.0428-.2931-.1465-.6107-.6106-.94l-6.7174-3.7679a.855.855 0 0 0 -1.1938.1916q-.0144.02-.0275.0405c-2.6748 4.3174-5.1907 7.6334-11.0226 7.6334a10.8908 10.8908 0 0 1 -11.3341-10.4975v-.1893h30.448c.4947 0 1.026-.2626 1.026-.8366v-1.2885c-.0119-11.0722-5.3552-23.9936-20.4143-23.9936zm-10.3814 17.8014.061-.22c1.2641-4.4213 5.2151-8.8975 10.3142-8.8975 5.7464 0 9.05 4.5983 10.2288 8.8975l.061.22z"/><path d="m442.985 192.5071h-9.8623v-11.2486a.8242.8242 0 0 0 -.9344-.8366h-7.9383c-.5069 0-1.02.2565-1.02.8366v4.7083c0 2.119 0 6.54-5.8991 6.54h-1.6609a1.0319 1.0319 0 0 0 -1.0259.8427v7.4868c0 .6962.7878.745 1.0259.745h7.56v18.1308c0 11.6577 4.3358 17.0988 13.6607 17.0988a17.1852 17.1852 0 0 0 6.4243-.9771v-.0366a1.02 1.02 0 0 0 .69-.7511v-7.8777a.9527.9527 0 0 0 -1.02-.8366 2.4432 2.4432 0 0 0 -.6778.171 9.9242 9.9242 0 0 1 -3.9632.916 10.3019 10.3019 0 0 1 -1.2214-.0733c-4.067-.91-4.0426-6.2533-4.0243-9.7707v-16.0115h9.8623c.2382 0 1.02-.0488 1.02-.745v-7.4683a1.0318 1.0318 0 0 0 -.9956-.8429z"/><path d="m471.1 191.2186a22.794 22.794 0 1 0 22.9795 22.79 22.6375 22.6375 0 0 0 -22.9795-22.79zm0 36.2493a13.4073 13.4073 0 0 1 0-26.8023 13.4348 13.4348 0 0 1 0 26.8268z"/><path d="m521.5538 191.2186a15.6756 15.6756 0 0 0 -11.1264 4.464l-.2809.2931-.11-2.6259a1.0319 1.0319 0 0 0 -1.0259-.8427h-7.9266a1.0319 1.0319 0 0 0 -1.0259.8366v41.1469a.9711.9711 0 0 0 1.0113.929l.0146-.0007h7.9388a.971.971 0 0 0 1.0251-.9136l.0008-.0147v-18.8206c0-6.9433 0-15.5782 9.1234-15.5782 7.4929 0 8.1036 4.922 8.1036 10.876v23.5231a.9709.9709 0 0 0 1.0112.9289l.0147-.0007h7.9384a.8917.8917 0 0 0 .9341-.847c.0013-.027.0014-.0542 0-.0812v-24.5431c-.0177-12.9523-4.8297-18.7292-15.6203-18.7292z"/></g></svg>