<svg viewBox="0 0 600 400" xmlns="http://www.w3.org/2000/svg" xmlns:xlink="http://www.w3.org/1999/xlink"><linearGradient id="a" gradientTransform="matrix(1 0 0 -1 0 -798)" gradientUnits="userSpaceOnUse" x1="118.3831" x2="220.6307" y1="-1044.7298" y2="-1044.7298"><stop offset="0" stop-color="#ff0800"/><stop offset="1" stop-color="#670164"/></linearGradient><linearGradient id="b" gradientTransform="matrix(0 -1 -1 0 516.334 2949.6035)" gradientUnits="userSpaceOnUse" x1="2698.484" x2="2800.7366" y1="300.1683" y2="300.1683"><stop offset="0" stop-color="#f8fc83"/><stop offset="1" stop-color="#ff8600"/></linearGradient><linearGradient id="c" gradientTransform="matrix(-1 0 0 1 4263.9365 2433.2705)" gradientUnits="userSpaceOnUse" x1="4043.3243" x2="4145.5693" y1="-2279.8713" y2="-2279.8713"><stop offset="0" stop-color="#bfe7e5"/><stop offset="1" stop-color="#0b4499"/></linearGradient><linearGradient id="d" gradientTransform="matrix(0 1 1 0 3747.6035 -1314.333)" gradientUnits="userSpaceOnUse" x1="1463.2191" x2="1565.4692" y1="-3624.7023" y2="-3624.7023"><stop offset="0" stop-color="#eff711"/><stop offset="1" stop-color="#93c016"/></linearGradient><linearGradient id="e" x1="118.3814" x2="220.629" xlink:href="#a" y1="-1044.749" y2="-1044.749"/><linearGradient id="f" x1="2698.484" x2="2800.7366" xlink:href="#b" y1="300.1516" y2="300.1516"/><linearGradient id="g" x1="4043.3243" x2="4145.5693" xlink:href="#c" y1="-2280.0139" y2="-2280.0139"/><linearGradient id="h" x1="1463.2191" x2="1565.4692" xlink:href="#d" y1="-3624.7111" y2="-3624.7111"/><path d="m169.0849 127.7338a71.7224 71.7224 0 0 0 -46.0043 16.86c-.0805.0669-.1552.1421-.2352.2092-.2921.2458-.5776.4842-.8626.7319-.4822.4175-.9744.831-1.4376 1.2546-.4779.4381-.9036.892-1.3592 1.3331-.2663.2577-.5511.4988-.81.758-.2577.2578-.5021.5455-.7581.81-.162.1676-.3353.3263-.4966.4967-.2579.2719-.5276.5306-.7842.81-.0211.0231-.0311.0552-.0523.0784q-1.0141 1.1088-2.0127 2.3c-.1136.1363-.2266.28-.34.4182-.5769.7-1.1357 1.4039-1.699 2.1434q-.8618 1.1313-1.699 2.3264c-.0726.1042-.1369.2088-.2091.3136a72.0679 72.0679 0 0 0 -12.8614 37.8227c-.0221.48-.04.9532-.0523 1.4376-.0318.895-.0523 1.8092-.0523 2.7185a71.2157 71.2157 0 0 0 14.899 43.5739c.604.7868 1.2105 1.5578 1.83 2.3.0668.0805.1421.1553.2091.2353.2951.3507.591.6789.8888 1.0194.367.4213.7259.8478 1.0978 1.2547.4392.4792.89.9283 1.3331 1.3853.2559.2645.5.5526.758.81s.5456.502.81.7581c.4316.418.8553.8394 1.307 1.2546.1848.17.3871.3281.575.4967 1.3276 1.1947 2.7181 2.38 4.2084 3.5288.1569.12.3119.2464.4705.3659a71.5893 71.5893 0 0 0 41.6656 14.69c.828.0276 1.6687.0523 2.5093.0523a71.7364 71.7364 0 0 0 46.1875-17.0168c.0528-.0442.1041-.0865.1568-.1307.7554-.6385 1.4625-1.2855 2.1695-1.9343.0232-.0212.0553-.0312.0784-.0523.4533-.4171.8738-.8611 1.307-1.2808.2646-.2559.5526-.5005.81-.758.2593-.26.5-.5439.758-.81.4412-.4557.895-.8812 1.3331-1.3593 1.029-1.1256 2.0434-2.3444 3.0321-3.581a71.7285 71.7285 0 0 0 15.9713-43.26c.0275-.8278.0523-1.669.0523-2.5093a71.3188 71.3188 0 0 0 -13.0956-41.0642c-.0722-.104-.1365-.21-.2091-.3137-1.2041-1.7016-2.439-3.2944-3.7118-4.81-.0439-.0526-.0866-.1044-.1306-.1568q-.9577-1.1338-1.9344-2.1957c-.0211-.0232-.0311-.0553-.0522-.0784-.417-.4536-.8611-.8736-1.2808-1.307-.2563-.2648-.5-.5525-.758-.81s-.5457-.5019-.81-.758c-.1684-.1632-.3251-.3339-.4966-.4967-.2644-.2506-.5131-.5092-.7842-.758-.0314-.0289-.073-.0495-.1045-.0784-.7059-.6455-1.42-1.2775-2.1695-1.9081-.0513-.0434-.1054-.0875-.1569-.1307-.0421-.0353-.0884-.0694-.1307-.1046a71.7222 71.7222 0 0 0 -42.7211-16.7944c-.4186-.0231-.8328-.0361-1.2547-.0522-.0523-.0015-.1046.0013-.1569 0-.8966-.0324-1.8059-.0523-2.7185-.0523zm.5489 33.1705a185.9188 185.9188 0 0 1 20.9373 17.8793 187.126 187.126 0 0 1 18.1143 21.2251 186.5573 186.5573 0 0 1 -18.0883 21.1991 187.0533 187.0533 0 0 1 -21.0946 17.9838 184.9991 184.9991 0 0 1 -21.0787-17.9587 187.414 187.414 0 0 1 -18.0357-21.1464 180.307 180.307 0 0 1 39.2348-39.1822z" fill="#fff"/><path d="m118.3831 251.1362c16.9207 16.914 55.5725-13.2921 72.21-29.9259 7.9689 7.9723 21.3573 21.2268 30.0372 29.91a73.081 73.081 0 0 1 -51.5257 21.1289 72.0409 72.0409 0 0 1 -50.72-21.1122z" fill="url(#a)"/><path d="m220.629 251.12c16.9215-16.919-13.4176-55.7055-30.0522-72.34 7.9689-7.9723 21.3539-21.23 30.0321-29.9125a73.048 73.048 0 0 1 21.1456 51.5307 72.0544 72.0544 0 0 1 -21.1255 50.7218z" fill="url(#b)"/><path d="m220.6123 148.8669c-16.9215-16.9215-55.5558 13.5481-72.1879 30.1827-7.9706-7.97-21.3773-21.4861-30.0572-30.1643a73.0476 73.0476 0 0 1 51.5266-21.1364 72.028 72.028 0 0 1 50.7168 21.118z" fill="url(#c)"/><path d="m118.3672 148.8861c-16.919 16.9174 13.4235 55.7022 30.0572 72.3384-7.9748 7.9715-21.3589 21.2293-30.0413 29.9117a72.7385 72.7385 0 0 1 -.0159-102.25z" fill="url(#d)"/><path d="m220.629 251.12c-16.9157 16.9207-55.5725-13.2545-72.2063-29.895-7.9747 7.9723-21.3589 21.23-30.0413 29.9117a73.0738 73.0738 0 0 0 51.5324 21.1373 72.0515 72.0515 0 0 0 50.7152-21.154z" fill="url(#e)"/><path d="m220.6123 148.8669c16.9206 16.92-13.3817 55.7088-30.0179 72.3426 7.9773 7.9789 21.3572 21.2267 30.0371 29.91a73.0759 73.0759 0 0 0 21.1385-51.5282 72.0847 72.0847 0 0 0 -21.1539-50.7244z" fill="url(#f)"/><path d="m118.3672 148.8861c16.9207-16.9156 55.5767 13.2554 72.2079 29.8933 7.9714-7.9739 21.3548-21.23 30.0372-29.9125a73.0566 73.0566 0 0 0 -51.5283-21.1331 72.0632 72.0632 0 0 0 -50.7168 21.1523z" fill="url(#g)"/><path d="m118.3831 251.1362c-16.9207-16.9215 13.4025-55.4562 30.0413-72.0858-7.9731-7.9773-21.3756-21.4835-30.0572-30.1643a73.3232 73.3232 0 0 0 -21.0068 51.66 71.684 71.684 0 0 0 21.0227 50.5901z" fill="url(#h)"/><g fill="#3f3f3f"><path d="m292.74 167.7792c0 6.2533-1.8051 7.3131-7.5214 7.3131-5.8318 0-7.631-1.0606-7.631-7.3131 0-5.616 1.7992-6.46 7.631-6.46 5.7162.0008 7.5214.8448 7.5214 6.46zm-1.0623 54.7628c0 8.3444 4.0225 12.73 4.0225 12.73s-5.3391 4.2132-9.4545 4.2132c-5.4068 0-7.7079-9.7146-7.7079-13.7321v-41.975h13.14v38.7639z"/><path d="m449.475 167.7792c0 6.2533-1.805 7.3131-7.5264 7.3131-5.8292 0-7.6293-1.0606-7.6293-7.3131 0-5.616 1.8-6.46 7.6293-6.46 5.7214.0008 7.5264.8448 7.5264 6.46zm-1.0631 54.7628c0 8.3444 4.0209 12.73 4.0209 12.73s-5.3391 4.2132-9.4528 4.2132c-5.4061 0-7.708-9.7146-7.708-13.7321v-41.975h13.14v38.7639z"/><path d="m321.7733 238.9825c-14.8337 0-22.6772-6.1463-22.6772-28.0823 0-22.0373 8.16-28.7122 25.9611-28.7122a76.071 76.071 0 0 1 18.2531 2.3111c5.7356 1.5249 5.2689 6.2768 5.2689 6.2768v42.8c0 21.0845-11.76 25.7528-28.8168 25.7528a61.0329 61.0329 0 0 1 -13.4794-1.59c-5.5692-1.3442-3.5617-9.319-3.5617-9.319l.7185-2.8674a57.0561 57.0561 0 0 0 16.2131 2.6477c9.9622 0 15.7881-2.7577 15.7881-12.7158a26.1955 26.1955 0 0 1 -13.6677 3.4983zm13.6667-41.6957s.2861-2.6825-3.2153-3.447a34.9991 34.9991 0 0 0 -7.1684-.844c-9.3223 0-12.3946 2.4375-12.3946 17.8 0 13.4552 2.8573 16.85 12.0767 16.85 5.8259 0 10.7025-1.8051 10.7025-5.0865v-25.2741z"/><path d="m425.1844 169.3074v53.2538a19.134 19.134 0 0 0 4.1362 12.7158s-10.1269 8.306-14.0089 1.6068c-2.0911-3.6068-3.2655-7.9153-3.2655-13.7931v-61.8794h5.4219c8.3093 0 7.7163 8.0969 7.7163 8.0969z"/><path d="m502.64 230.3336s0 4.7661-5.4955 6.37a71.5392 71.5392 0 0 1 -18.8738 2.4893c-17.0562 0-22.7834-3.9163-22.7834-18.0106 0-15.2586 8.5854-17.6944 21.1958-17.6944a63.5072 63.5072 0 0 1 13.3506 1.4806c0-9.4252-2.2249-11.7573-13.4569-11.7573a51.4628 51.4628 0 0 0 -9.201.8106c-7.6176 1.39-8.4557-4.0886-8.4557-4.0886l-1.0983-4.8816a90.3272 90.3272 0 0 1 10.4214-2.0552 82.6041 82.6041 0 0 1 11.0914-.8055c15.9972 0 23.3062 4.8732 23.3062 20.98v27.1623zm-12.6071-5.5842v-10.8794a53.385 53.385 0 0 0 -10.6991-.9535c-7.4185 0-10.07.85-10.07 7.7355 0 7.31 2.0125 8.4775 9.9589 8.4775a34.7324 34.7324 0 0 0 8.0968-1.0054 3.4471 3.4471 0 0 0 2.7135-3.3751z"/><path d="m403.035 230.3336s.0033 4.7661-5.4972 6.37a71.4943 71.4943 0 0 1 -18.8738 2.4893c-17.0562 0-22.7758-3.9163-22.7758-18.0106 0-15.2586 8.577-17.6944 21.1891-17.6944a63.52 63.52 0 0 1 13.3506 1.4806c0-9.4252-2.2233-11.7573-13.4569-11.7573a51.5462 51.5462 0 0 0 -9.201.8106c-7.6176 1.39-8.4524-4.0886-8.4524-4.0886l-1.1024-4.8816a90.1037 90.1037 0 0 1 10.4247-2.0552 82.5488 82.5488 0 0 1 11.0864-.8055c16.0006 0 23.31 4.8732 23.31 20.98v27.1623zm-12.6071-5.5842v-10.8794a53.42 53.42 0 0 0 -10.7024-.9535c-7.4152 0-10.0651.85-10.0651 7.7355 0 7.31 2.0108 8.4775 9.9589 8.4775a34.7079 34.7079 0 0 0 8.0952-1.0054 3.4459 3.4459 0 0 0 2.7134-3.3747z"/></g></svg>