<svg id="Ebene_1" data-name="Ebene 1" xmlns="http://www.w3.org/2000/svg" viewBox="0 0 600 400"><defs><style>.cls-1{fill:none}.cls-2{fill:#212121}</style></defs><path class="cls-1" d="M54.664 171.555h490.671v56.889H54.664z"/><circle class="cls-2" cx="83.109" cy="200" r="28.445"/><path fill="#bdbdbd" d="M63.148 180.039h39.922v39.922H63.148z"/><path fill="#fff" d="M103.07 180.039l-19.961 39.922-19.961-39.922h39.922z"/><path class="cls-1" d="M54.664 171.555h56.889v56.889H54.664z"/><path class="cls-2" d="M142.155 184.697l5.577 17.133 6.025-17.133h5.413v34.266h-4.236V205.29l.353-14.309-6.33 18.451h-2.495l-5.813-17.957.353 13.815v13.673h-4.236v-34.266zm41.707 25.393h-11.438l-2.753 8.873h-4.354l11.061-34.266h3.648l10.873 34.266h-4.33zm-10.26-3.788h9.107l-4.519-14.874zm43.191-17.886h-10.59v30.547h-4.237v-30.547h-10.59v-3.719h25.417zm26.254 14.709h-14.309v12.143h16.686v3.695h-21.04v-34.266h20.828v3.719h-16.474v11.014h14.309zm21.175 1.859h-6.848v13.98h-4.33v-34.267h10.049a16.815 16.815 0 0 1 4.518.683 10.856 10.856 0 0 1 3.707 1.906 8.874 8.874 0 0 1 2.494 3.19 10.458 10.458 0 0 1 .906 4.506 9.063 9.063 0 0 1-1.812 5.577 9.786 9.786 0 0 1-2.023 2 13.06 13.06 0 0 1-2.59 1.483l7.273 14.638-.024.283h-4.589zm-6.848-3.577h5.836a9.016 9.016 0 0 0 2.753-.46 6.887 6.887 0 0 0 2.272-1.258 5.924 5.924 0 0 0 1.541-2.012 6.32 6.32 0 0 0 .565-2.742 7.14 7.14 0 0 0-.541-2.883 5.754 5.754 0 0 0-1.507-2.071 6.462 6.462 0 0 0-2.294-1.26 10.036 10.036 0 0 0-2.907-.446h-5.719zm23.898-16.71h20.71v3.79h-8.214v26.71h8.214v3.766h-20.71v-3.765h8.025v-26.712h-8.025zm44.316 25.393H314.15l-2.753 8.873h-4.354l11.06-34.266h3.649l10.872 34.266h-4.33zm-10.261-3.788h9.107l-4.518-14.874zm27.843 8.966h16.756v3.695h-21.11v-34.266h4.354zm35.54 3.695v-34.266h7.931a17.167 17.167 0 0 1 6.39 1.213 13.413 13.413 0 0 1 4.753 3.247 14.065 14.065 0 0 1 2.966 4.99 19.67 19.67 0 0 1 1.047 6.436v2.518a19.673 19.673 0 0 1-1.047 6.437 14.073 14.073 0 0 1-2.966 4.99 13.434 13.434 0 0 1-4.754 3.247 16.867 16.867 0 0 1-6.389 1.188zm4.424-30.688v27.135h3.507a11.414 11.414 0 0 0 4.801-.977 9.37 9.37 0 0 0 3.354-2.6 10.954 10.954 0 0 0 1.976-3.883 17.97 17.97 0 0 0 .671-4.848v-2.566a17.53 17.53 0 0 0-.682-4.836 11.1 11.1 0 0 0-1.977-3.86 9.203 9.203 0 0 0-3.342-2.577 11.79 11.79 0 0 0-4.801-.988zm44.521 14.85h-14.31v12.143h16.687v3.695h-21.04v-34.266h20.828v3.719h-16.474v11.014h14.309zm26.559 7.178a4.709 4.709 0 0 0-.717-2.66 6.398 6.398 0 0 0-1.848-1.823 12.001 12.001 0 0 0-2.483-1.236q-1.353-.494-2.6-.895a38.996 38.996 0 0 1-3.683-1.412 16.05 16.05 0 0 1-3.412-2.023 10.182 10.182 0 0 1-2.518-2.837 7.36 7.36 0 0 1-.977-3.847 7.942 7.942 0 0 1 .977-3.954 9.485 9.485 0 0 1 2.553-2.942 11.502 11.502 0 0 1 3.577-1.824 13.469 13.469 0 0 1 4.025-.623 12.675 12.675 0 0 1 4.306.741 11.902 11.902 0 0 1 3.672 2.083 10.203 10.203 0 0 1 2.565 3.248 9.745 9.745 0 0 1 1.012 4.26h-4.472a9.531 9.531 0 0 0-.73-2.695 6.672 6.672 0 0 0-1.435-2.083 6.304 6.304 0 0 0-2.13-1.353 7.63 7.63 0 0 0-2.79-.483 8.508 8.508 0 0 0-2.435.353 6.548 6.548 0 0 0-2.118 1.06 5.286 5.286 0 0 0-1.483 1.741 5.02 5.02 0 0 0-.553 2.4 4.325 4.325 0 0 0 .753 2.506 6.491 6.491 0 0 0 1.848 1.73 12.369 12.369 0 0 0 2.424 1.177q1.306.471 2.46.824 1.27.4 2.564.906a21.318 21.318 0 0 1 2.495 1.165 15.822 15.822 0 0 1 2.236 1.482 9.987 9.987 0 0 1 1.812 1.871 8.288 8.288 0 0 1 1.647 5.095 7.711 7.711 0 0 1-1.024 4.025 9.225 9.225 0 0 1-2.647 2.859 11.95 11.95 0 0 1-3.671 1.718 15.05 15.05 0 0 1-4.095.577 14.477 14.477 0 0 1-4.472-.706 12.835 12.835 0 0 1-3.918-2.036 10.665 10.665 0 0 1-2.813-3.247 9.285 9.285 0 0 1-1.153-4.366h4.448a8.28 8.28 0 0 0 .87 2.835 6.907 6.907 0 0 0 1.695 2.095 7.105 7.105 0 0 0 2.39 1.294 9.576 9.576 0 0 0 2.953.436 10.038 10.038 0 0 0 2.506-.318 6.79 6.79 0 0 0 2.2-.988 5.445 5.445 0 0 0 1.577-1.695 4.663 4.663 0 0 0 .612-2.435zm10.026-25.606h20.71v3.79h-8.213v26.71h8.214v3.766h-20.71v-3.765h8.025v-26.712h-8.025zm50.37 29.771a13.713 13.713 0 0 1-4.965 3.766 14.915 14.915 0 0 1-6.143 1.2 12.1 12.1 0 0 1-3.895-.648 11.226 11.226 0 0 1-3.188-1.717 12.245 12.245 0 0 1-2.471-2.578 16.162 16.162 0 0 1-1.777-3.212 18.588 18.588 0 0 1-1.083-3.624 21.525 21.525 0 0 1-.388-3.825v-3.977a24.767 24.767 0 0 1 .341-3.8 19.241 19.241 0 0 1 .977-3.637 16.3 16.3 0 0 1 1.647-3.236 10.958 10.958 0 0 1 5.484-4.318 11.335 11.335 0 0 1 3.906-.636 12.765 12.765 0 0 1 4.425.742 10.367 10.367 0 0 1 5.954 5.436 12.694 12.694 0 0 1 1.13 4.342h-4.307a12.278 12.278 0 0 0-.8-2.742 6.93 6.93 0 0 0-1.424-2.153 6.31 6.31 0 0 0-2.106-1.4 7.415 7.415 0 0 0-2.848-.506 6.769 6.769 0 0 0-2.753.53 6.84 6.84 0 0 0-2.095 1.423 7.828 7.828 0 0 0-1.482 2.083 14.783 14.783 0 0 0-.965 2.507 17.272 17.272 0 0 0-.542 2.682 21.993 21.993 0 0 0-.164 2.636v4.025a21.177 21.177 0 0 0 .223 2.67 16.547 16.547 0 0 0 .624 2.695 13.607 13.607 0 0 0 1.083 2.495 8.838 8.838 0 0 0 1.588 2.071 7.024 7.024 0 0 0 4.93 1.977 15.287 15.287 0 0 0 1.871-.07 9.519 9.519 0 0 0 1.895-.377 7.69 7.69 0 0 0 1.718-.765 4.377 4.377 0 0 0 1.341-1.26l.047-7.695h-6.966v-3.671h11.108zm30.387 4.495h-4.424l-13.297-25.605-.07 25.605h-4.402v-34.266h4.425l13.296 25.558.071-25.558h4.401z"/></svg>