<svg viewBox="0 0 600 400" xmlns="http://www.w3.org/2000/svg"><path d="m54.9288 211.095c-11.1041 0-16.8747-6.0329-17.2244-18.0113a1.002 1.002 0 0 1 .85-1.1335l.024-.0031 8.4811-1.399a.8988.8988 0 0 1 1.0492.612v.2623c.2623 7.257 2.4481 10.1423 7.0821 10.1423 4.3717 0 6.47-2.3607 6.47-9.7925s-1.399-9.7926-6.82-11.9784l-4.0219-1.6613c-9.53-3.76-12.4156-8.7433-12.4156-19.41 0-11.8035 5.4209-18.3611 16.7-18.3611s16.2626 6.033 16.8746 16.7873c0 .612-.35.8743-.8743 1.1366l-8.0436 1.2239c-.612.0874-1.1366-.1749-1.1366-.7869-.1749-5.6832-2.011-8.8308-6.47-8.8308-4.2843 0-6.2952 2.623-6.2952 8.3062 0 6.3826 1.224 8.3062 6.6449 10.4046l4.1969 1.5738c9.0057 3.5848 12.503 8.3936 12.503 20.11.087 13.7268-4.4592 20.8089-17.5742 20.8089z"/><path d="m75.8254 142.3722a1.0387 1.0387 0 0 1 .8746-1.0492h8.918a1.0388 1.0388 0 0 1 1.0492.8744v66.8866a1.0387 1.0387 0 0 1 -.8744 1.0492h-9.0056a1.0386 1.0386 0 0 1 -1.0492-.8743v-66.8867z"/><path d="m92.2629 142.3722a1.0388 1.0388 0 0 1 .8744-1.0492h10.8417a1.2094 1.2094 0 0 1 1.3912.9946q.0045.0272.0078.0546l12.7653 47.5639h.5246v-47.5639a1.0387 1.0387 0 0 1 .8743-1.0492h7.6067a1.0387 1.0387 0 0 1 1.0492.8744v66.8866a1.0386 1.0386 0 0 1 -.8743 1.0492h-10.1423a1.2091 1.2091 0 0 1 -1.3911-.9945q-.0046-.0273-.0078-.0547l-13.3774-47.4764h-.612v47.5639a1.0388 1.0388 0 0 1 -.8744 1.0492h-7.6067a1.0389 1.0389 0 0 1 -1.0492-.8744z"/><path d="m133.8813 142.3722a1.0387 1.0387 0 0 1 .8743-1.0492h10.7544a1.2092 1.2092 0 0 1 1.3911.9946q.0045.0272.0078.0546l12.7653 47.5639h.5246v-47.5639a1.0387 1.0387 0 0 1 .8743-1.0492h7.6942a1.0387 1.0387 0 0 1 1.0492.8744v66.8866a1.0386 1.0386 0 0 1 -.8743 1.0492h-10.1422a1.2092 1.2092 0 0 1 -1.3912-.9945q-.0045-.0273-.0078-.0547l-13.3774-47.564h-.612v47.564a1.0388 1.0388 0 0 1 -.8744 1.0492h-7.6067a1.0386 1.0386 0 0 1 -1.0492-.8743z"/><path d="m175.5 142.3722a1.0387 1.0387 0 0 1 .8743-1.0492h28.3285a1.0387 1.0387 0 0 1 1.0492.8744v7.869a1.0387 1.0387 0 0 1 -.8743 1.0492h-17.9242a.6575.6575 0 0 0 -.6121.4371v18.2737a.6577.6577 0 0 0 .4372.612h15.5632a1.0386 1.0386 0 0 1 1.0492.8743v7.869a1.0386 1.0386 0 0 1 -.8743 1.0492h-15.4758a.6577.6577 0 0 0 -.612.4372v18.9731a.6574.6574 0 0 0 .4372.612h17.8364a1.0387 1.0387 0 0 1 1.0492.8744v7.869a1.0386 1.0386 0 0 1 -.8743 1.0492h-28.3285a1.0386 1.0386 0 0 1 -1.0492-.8743z"/><path d="m237.14 210.1332a1.0605 1.0605 0 0 1 -1.1367-.6994l-8.3933-27.4538h-5.1586a.6577.6577 0 0 0 -.612.4372v26.6668a1.0387 1.0387 0 0 1 -.8744 1.0492h-8.8308a1.0387 1.0387 0 0 1 -1.0492-.8743v-66.8867a1.0389 1.0389 0 0 1 .8744-1.0492h13.9894c12.2407 0 19.6725 5.3335 19.6725 20.4595 0 9.0056-3.06 14.6888-8.2187 17.5741l9.7051 29.7274c.1749.5246 0 1.0492-.5246 1.0492zm-2.4482-48.3507c0-8.1314-2.623-10.6669-8.7433-10.6669h-3.4974a.6575.6575 0 0 0 -.612.4371v20.2846a.6575.6575 0 0 0 .4371.6121h3.6723c6.1207 0 8.7437-2.4482 8.7437-10.6669z"/><path d="m267.0426 211.095c-11.104 0-16.8747-5.9455-17.2244-18.0113 0-.6121.1749-1.0492.7869-1.1367l8.4811-1.3989a.8988.8988 0 0 1 1.0492.612v.2623c.35 7.257 2.4481 10.1423 7.0821 10.1423 4.3717 0 6.47-2.3607 6.47-9.7925s-1.399-9.7926-6.82-11.9784l-4.1093-1.5738c-9.53-3.76-12.3282-8.7434-12.3282-19.41 0-11.8035 5.3335-18.361 16.7-18.361s16.2627 6.0329 16.8747 16.7872c0 .612-.2623.8744-.8743 1.1367l-8.1313 1.224c-.6121.0875-1.1367-.1748-1.1367-.7869-.1748-5.6832-2.0109-8.8308-6.47-8.8308-4.2843 0-6.2953 2.623-6.2953 8.3062 0 6.3827 1.2241 8.3062 6.645 10.4046l4.1968 1.5738c9.0056 3.5848 12.59 8.3936 12.59 20.11.1753 13.6391-4.3712 20.7212-17.4863 20.7212z"/><path d="m288.7262 175.7718c0-19.1479.4371-21.9458 1.3115-24.8311 2.0984-6.5575 7.17-10.492 15.5631-10.492 9.7926 0 16 5.0711 16.6124 16.5249.0875.6121-.0874 1.1367-.6994 1.2241l-8.2188 1.3989a.8987.8987 0 0 1 -1.0492-.612v-.2623c-.35-5.858-2.3607-8.3936-6.2952-8.3936-3.06 0-4.634 1.3115-5.4209 3.847-.5246 1.5738-.7 3.06-.7 21.6836s.1749 20.0223.7 21.6835c.7869 2.5356 2.4481 3.8471 5.4209 3.8471 3.9345 0 5.9454-2.5356 6.2952-8.3937a.8262.8262 0 0 1 .8743-.8743h.2623l8.2188 1.3989c.612.0875.7869.6121.6994 1.2241-.612 11.4538-6.82 16.525-16.6124 16.525-8.3936 0-13.4647-3.9346-15.5631-10.4921-.9618-3.0601-1.3989-5.9454-1.3989-25.006z"/><path d="m328.0713 142.3722a1.0387 1.0387 0 0 1 .8743-1.0492h8.9182a1.0388 1.0388 0 0 1 1.0493.8744v27.1918a.6575.6575 0 0 0 .4371.612h11.8036a.6575.6575 0 0 0 .612-.4371v-27.2793a1.0386 1.0386 0 0 1 .8743-1.0492h8.9183a1.0387 1.0387 0 0 1 1.0492.8743v66.8867a1.0386 1.0386 0 0 1 -.8743 1.0492h-8.8309a1.0386 1.0386 0 0 1 -1.0492-.8743v-28.6782a.6575.6575 0 0 0 -.4372-.6121h-11.8909a.6575.6575 0 0 0 -.6121.4372v28.8531a1.0387 1.0387 0 0 1 -.8743 1.0492h-8.9182a1.0388 1.0388 0 0 1 -1.0493-.8744v-66.9741z"/><path d="m394.4333 210.1332a1.06 1.06 0 0 1 -1.1366-.6994l-8.3936-27.4538h-5.1586c-.2623-.0874-.5246.1749-.612.4372v26.6668a1.0387 1.0387 0 0 1 -.8744 1.0492h-8.9181a1.0386 1.0386 0 0 1 -1.0492-.8743v-66.8867a1.0387 1.0387 0 0 1 .8743-1.0492h13.9894c12.2407 0 19.6726 5.3335 19.6726 20.4595 0 9.0056-3.06 14.6888-8.2188 17.5741l9.7051 29.7274c.1749.5246 0 1.0492-.5246 1.0492zm-2.4481-48.3507c0-8.1314-2.623-10.6669-8.7433-10.6669h-3.4974c-.2623-.0875-.5246.1748-.612.4371v20.2846a.6575.6575 0 0 0 .4371.6121h3.6723c6.1203 0 8.7433-2.4482 8.7433-10.6669z"/><path d="m422.15 142.3722c.1749-.612.5246-1.0492 1.1366-1.0492h8.4811a1.1367 1.1367 0 0 1 1.1366 1.0492l14.6014 66.7993a.6993.6993 0 0 1 -.5246.9617c-.0874 0-.1748.0875-.35 0h-8.5685a1.1365 1.1365 0 0 1 -1.1366-.9617v-.0875l-2.71-13.9019h-13.64l-2.7105 13.9019a1.0632 1.0632 0 0 1 -1.0492 1.0492h-8.6563a.8514.8514 0 0 1 -.8743-.6994v-.35zm10.23 43.8042-4.8962-25.618h-.2623l-5.0712 25.618z"/><path d="m450.9154 142.3722a1.0388 1.0388 0 0 1 .8744-1.0492h16.0878c9.0056 0 14.2516 3.6722 16.7 11.0167 1.224 3.76 1.7486 8.3936 1.7486 23.3447s-.5246 19.6726-1.7487 23.3448c-2.4481 7.3444-7.6941 11.0166-16.7 11.0166h-15.9129a1.0387 1.0387 0 0 1 -1.0492-.8743zm11.4538 57.9685h4.3717c3.8471 0 6.12-1.4864 7.257-4.9837.7869-2.5356 1.2241-5.8581 1.2241-19.6726s-.35-17.05-1.1367-19.5851c-1.224-3.41-3.41-4.9837-7.2569-4.9837h-4.3717a.6575.6575 0 0 0 -.6121.4372v48.1759c-.0874.2623.1749.5246.4372.612z"/><path d="m490.6977 142.3722a1.0388 1.0388 0 0 1 .8743-1.0492h28.328a1.0387 1.0387 0 0 1 1.0492.8744v7.869a1.0387 1.0387 0 0 1 -.8743 1.0492h-17.9234c-.2623-.0875-.5246.1748-.612.4371v18.2737a.6575.6575 0 0 0 .4371.612h15.5634a1.0386 1.0386 0 0 1 1.0492.8743v7.869a1.0386 1.0386 0 0 1 -.8743 1.0492h-15.476c-.2623-.0874-.5245.1749-.612.4372v18.9731a.6574.6574 0 0 0 .4372.612h18.0113a1.0388 1.0388 0 0 1 1.0492.8744v7.869a1.0387 1.0387 0 0 1 -.8744 1.0492h-28.3284a1.0386 1.0386 0 0 1 -1.0492-.8743v-.0875z"/><path d="m552.3384 210.1332a1.0605 1.0605 0 0 1 -1.1367-.6994l-8.3936-27.4538h-5.1581a.6577.6577 0 0 0 -.612.4372v26.6668a1.0387 1.0387 0 0 1 -.8744 1.0492h-8.9186a1.0386 1.0386 0 0 1 -1.0492-.8743v-66.8867a1.0387 1.0387 0 0 1 .8743-1.0492h13.9899c12.2407 0 19.6725 5.3335 19.6725 20.4595 0 9.0056-3.06 14.6888-8.2188 17.5741l9.7051 29.7274c.1749.5246 0 1.0492-.5245 1.0492zm-2.4484-48.3507c0-8.1314-2.623-10.6669-8.7433-10.6669h-3.4967a.6575.6575 0 0 0 -.612.4371v20.2846a.6575.6575 0 0 0 .4372.6121h3.6722c6.1198 0 8.7426-2.4482 8.7426-10.6669z"/><path d="m37.7044 230.5927h8.1313c5.5083 0 10.0549 2.4481 10.0549 8.3936v.1749c0 6.12-4.5466 8.481-10.0549 8.481h-4.634v11.6287h-3.4973zm8.3936 14.2517c4.1094 0 6.2952-2.011 6.2952-5.6832v-.1749c0-4.0219-2.4481-5.5957-6.2952-5.5957h-4.8963v11.4538z"/><path d="m58.5136 253.4129c0-4.8963 5.1585-6.47 10.492-6.47h2.9727v-1.4864c0-3.3225-1.3115-4.7214-4.4591-4.7214-2.8853 0-4.4591 1.2241-4.8088 3.76h-3.3225c.4372-4.8088 4.2842-6.5575 8.3062-6.5575s7.6941 1.6613 7.6941 7.5193v13.8145h-3.3224v-2.623a7.583 7.583 0 0 1 -6.5576 2.9727c-3.847-.0005-6.9946-1.8366-6.9946-6.2082zm13.5522-1.4864v-2.623h-2.8853c-4.1969 0-7.257 1.0492-7.257 4.1094 0 2.1858 1.0492 3.4973 3.9345 3.4973 3.4973.0874 6.2078-1.7487 6.2078-4.9837z"/><path d="m81.6835 238.2868h3.3224v3.76a7.2753 7.2753 0 0 1 6.9073-4.1094v3.1476c-4.1968.1749-6.9073 1.4864-6.9073 6.7324v11.4538h-3.3224z"/><path d="m97.3341 254.0249v-12.94h-2.9728v-2.7979h2.9728v-4.809h3.3224v4.8088h4.8963v2.7979h-4.8963v12.59c0 2.011.9618 3.06 2.6231 3.06a6.2068 6.2068 0 0 0 2.5355-.4371v2.7978a7.9734 7.9734 0 0 1 -2.8853.4372c-3.7598.0006-5.5957-2.1852-5.5957-5.5077z"/><path d="m119.3673 248.9537v-.35c0-6.2952 4.3717-10.6669 10.3172-10.6669s10.3172 4.3717 10.3172 10.6669v.35c0 6.2953-4.3717 10.6669-10.3172 10.6669s-10.3172-4.5465-10.3172-10.6669zm17.137 0v-.2623c0-4.8962-2.71-7.9564-6.82-7.9564s-6.82 3.1476-6.82 7.9564v.35c0 4.8088 2.623 7.869 6.82 7.869s6.82-3.2353 6.82-7.9567z"/><path d="m145.5974 241.0847h-2.9727v-2.7979h2.9727v-3.41c0-4.2842 2.0984-6.7323 6.2078-6.7323a5.7984 5.7984 0 0 1 2.4481.4371v2.7984a7.4978 7.4978 0 0 0 -2.3607-.4372c-2.1858 0-3.06 1.4864-3.06 3.5848v3.76h5.1586v2.7978h-5.1586v18.1862h-3.3226v-18.1869z"/><path d="m176.7238 230.5927h4.5462l9.7051 28.6782h-3.41l-2.7978-8.3062h-11.891l-2.7979 8.3062h-3.3225zm-2.8854 17.6616h9.9675l-4.9837-14.7763z"/><path d="m193.3361 249.0412v-.35c0-6.3827 4.5466-10.7544 10.1423-10.7544 4.3717 0 8.4811 2.011 9.0931 7.3444h-3.3225c-.5246-3.3224-2.9727-4.5465-5.7706-4.5465-3.8471 0-6.7324 3.06-6.7324 7.9565v.35c0 5.1586 2.7979 7.869 6.82 7.869 2.9727 0 5.6831-1.7487 6.0329-5.1586h3.06c-.4371 4.5466-4.1093 7.869-9.18 7.869-5.6837 0-10.1428-4.1093-10.1428-10.5794z"/><path d="m215.894 249.0412v-.35c0-6.3827 4.5465-10.7544 10.1423-10.7544 4.3717 0 8.481 2.011 9.0931 7.3444h-3.3225c-.5246-3.3224-2.9727-4.5465-5.7706-4.5465-3.8471 0-6.7324 3.06-6.7324 7.9565v.35c0 5.1586 2.7979 7.869 6.82 7.869 2.9728 0 5.6832-1.7487 6.0329-5.1586h3.06c-.4372 4.5466-4.1094 7.869-9.18 7.869-5.6837 0-10.1428-4.1093-10.1428-10.5794z"/><path d="m238.5393 249.0412v-.35c0-6.2953 4.0219-10.7544 9.7925-10.7544 4.8089 0 9.4429 2.9728 9.4429 10.4046v1.0492h-15.8255c.1749 4.8089 2.4481 7.4319 6.7324 7.4319 3.235 0 5.1586-1.2241 5.5957-3.6723h3.3227c-.7 4.1968-4.1968 6.3827-8.9182 6.3827-6.0331.0877-10.1425-4.0216-10.1425-10.4917zm15.8255-2.2733c-.35-4.3717-2.5356-6.0329-6.0329-6.0329s-5.6832 2.3607-6.2078 6.0329z"/><path d="m262.5835 238.2868h3.3225v3.3225a7.3043 7.3043 0 0 1 6.7324-3.6722c4.3717 0 7.3444 2.3607 7.3444 8.4811v12.8527h-3.3228v-13.115c0-3.6722-1.5738-5.3335-4.8962-5.3335a5.5206 5.5206 0 0 0 -5.8581 5.7707v12.6778h-3.3225z"/><path d="m286.9775 254.0249v-12.94h-2.9727v-2.7979h2.9727v-4.809h3.3225v4.8088h4.8962v2.7979h-4.8962v12.59c0 2.011.9617 3.06 2.623 3.06a6.2068 6.2068 0 0 0 2.5355-.4371v2.7978a7.5107 7.5107 0 0 1 -2.7979.4372c-3.847.0006-5.6831-2.1852-5.6831-5.5077z"/><path d="m300.0051 251.5767v-13.29h3.3225v13.1151c0 3.6722 1.5737 5.3334 4.8088 5.3334a5.49 5.49 0 0 0 5.7683-5.1967l.0023-.0493v-13.2024h3.323v20.9841h-3.323v-3.3225a7.2566 7.2566 0 0 1 -6.6449 3.6722c-4.1094 0-7.257-2.2732-7.257-8.0439z"/><path d="m323.7 238.2868h3.3225v3.76a7.2752 7.2752 0 0 1 6.9072-4.1094v3.1476c-4.1968.1749-6.9072 1.4864-6.9072 6.7324v11.4538h-3.3225z"/><path d="m336.3775 249.0412v-.35c0-6.2953 4.0219-10.7544 9.7925-10.7544 4.8089 0 9.4428 2.9728 9.4428 10.4046v1.0492h-15.8254c.1748 4.8089 2.4481 7.4319 6.7324 7.4319 3.235 0 5.1585-1.2241 5.5957-3.6723h3.3225c-.7 4.1968-4.1968 6.3827-8.9183 6.3827-5.9454.0877-10.1422-4.0216-10.1422-10.4917zm15.8254-2.2733c-.35-4.3717-2.5355-6.0329-6.0329-6.0329s-5.6831 2.3607-6.2078 6.0329z"/><path d="m371.176 230.5927h3.4974v28.6782h-3.4974z"/><path d="m381.5806 238.2868h3.3225v3.3225a7.304 7.304 0 0 1 6.7324-3.6722c4.3716 0 7.3444 2.3607 7.3444 8.4811v12.8527h-3.3225v-13.115c0-3.6722-1.5738-5.3335-4.8963-5.3335a5.5205 5.5205 0 0 0 -5.858 5.7707v12.6778h-3.3225z"/><path d="m405.9746 254.0249v-12.94h-2.9727v-2.7979h2.9727v-4.809h3.3225v4.8088h4.8962v2.7979h-4.8962v12.59c0 2.011.9617 3.06 2.623 3.06a6.2068 6.2068 0 0 0 2.5355-.4371v2.7978a7.5113 7.5113 0 0 1 -2.7979.4372c-3.847.0006-5.6831-2.1852-5.6831-5.5077z"/><path d="m417.6032 249.0412v-.35c0-6.2953 4.022-10.7544 9.7926-10.7544 4.8089 0 9.4428 2.9728 9.4428 10.4046v1.0492h-15.738c.1749 4.8089 2.4481 7.4319 6.7324 7.4319 3.235 0 5.1586-1.2241 5.5957-3.6723h3.41c-.6994 4.1968-4.1968 6.3827-8.9182 6.3827-6.033.0877-10.3173-4.0216-10.3173-10.4917zm15.8255-2.2733c-.35-4.3717-2.5355-6.0329-6.0329-6.0329s-5.6832 2.3607-6.2952 6.0329z"/><path d="m441.6475 238.2868h3.3225v3.76a7.2754 7.2754 0 0 1 6.9073-4.1094v3.1476c-4.1968.1749-6.9073 1.4864-6.9073 6.7324v11.4538h-3.3224z"/><path d="m454.5876 253.4129c0-4.8963 5.1586-6.47 10.4921-6.47h2.9727v-1.4864c0-3.3225-1.3115-4.7214-4.4591-4.7214-2.8853 0-4.4591 1.2241-4.8089 3.76h-3.3224c.4371-4.8088 4.2842-6.5575 8.3062-6.5575s7.6941 1.6613 7.6941 7.5193v13.8145h-3.3223v-2.623a7.5827 7.5827 0 0 1 -6.5575 2.9727c-3.9347-.0005-6.9949-1.8366-6.9949-6.2082zm13.4648-1.4864v-2.623h-2.8853c-4.1968 0-7.257 1.0492-7.257 4.1094 0 2.1858 1.0492 3.4973 3.9345 3.4973 3.4974.0874 6.2078-1.7487 6.2078-4.9837z"/><path d="m476.0963 249.0412v-.35c0-6.3827 4.5466-10.7544 10.23-10.7544 4.3717 0 8.4811 2.011 9.0931 7.3444h-3.3224c-.5246-3.3224-2.8853-4.5465-5.8581-4.5465-3.8471 0-6.7324 3.06-6.7324 7.9565v.35c0 5.1586 2.7979 7.869 6.82 7.869 2.9728 0 5.6832-1.7487 6.033-5.1586h3.06c-.4371 4.5466-4.1094 7.869-9.18 7.869-5.7715 0-10.1432-4.1093-10.1432-10.5794z"/><path d="m500.9274 254.0249v-12.94h-2.9727v-2.7979h2.9727v-4.809h3.3226v4.8088h4.8963v2.7979h-4.8963v12.59c0 2.011.9617 3.06 2.623 3.06a6.2073 6.2073 0 0 0 2.5356-.4371v2.7978a7.5113 7.5113 0 0 1 -2.7979.4372c-3.8471.0006-5.6833-2.1852-5.6833-5.5077z"/><path d="m513.6053 231.7293a2.1859 2.1859 0 1 1 2.1858 2.1859 2.2821 2.2821 0 0 1 -2.1858-2.1859zm.612 6.5575h3.3227v20.9841h-3.3225z"/><path d="m521.7366 238.2868h3.5848l6.2077 17.5742 6.12-17.5742h3.41l-7.5191 20.9841h-4.1968z"/><path d="m543.07 249.0412v-.35c0-6.2953 4.0219-10.7544 9.7926-10.7544 4.8088 0 9.4428 2.9728 9.4428 10.4046v1.0492h-15.8254c.1748 4.8089 2.4481 7.4319 6.7323 7.4319 3.2351 0 5.1587-1.2241 5.5958-3.6723h3.3225c-.6995 4.1968-4.1968 6.3827-8.9183 6.3827-5.9451.0877-10.1423-4.0216-10.1423-10.4917zm15.8255-2.2733c-.35-4.3717-2.5356-6.0329-6.033-6.0329s-5.6831 2.3607-6.2952 6.0329z"/></svg>