<svg viewBox="0 0 600 400" xmlns="http://www.w3.org/2000/svg"><path d="m399.7508 231.265h-14.0287v-52.0643h-20.5464v-10.9868h55.3012v10.9869h-20.7261zm-55.5708-63.2308h14.1134v63.2333h-14.1108v-63.2384zm-24.8358 16.8858h12.4166v46.345h-23.406a30.2235 30.2235 0 0 1 -10.6326-1.6249 12.7688 12.7688 0 0 1 -6.5664-5.3651c-1.5146-2.4874-2.277-5.822-2.277-9.9754v-29.3796h12.3243v28.4938a12.2773 12.2773 0 0 0 .7213 4.5745 4.2769 4.2769 0 0 0 2.4977 2.4643 13.5515 13.5515 0 0 0 4.826.7008h10.0961zm-59.8551 46.345h-12.332v-46.3424h20.9058c3.8146 0 6.6665.5288 8.5738 1.5813a7.2009 7.2009 0 0 1 3.6606 4.3126 27.7338 27.7338 0 0 1 .8086 7.565v5.8885h-11.798v-3.6913a16.4539 16.4539 0 0 0 -.4415-4.7952 2.7008 2.7008 0 0 0 -1.6968-1.63q-1.0254-.1586-2.0588-.2567-1.4691-.1158-2.9443-.095h-2.6774v37.4656m-79.9652-24.8874v-38.3483h13.4923v37.9969q0 1.76.172 3.5631a40.1006 40.1006 0 0 0 .6751 4.1329 9.6265 9.6265 0 0 0 2.0536 4.2176 9.8275 9.8275 0 0 0 4.423 2.9007 21.6506 21.6506 0 0 0 7.1517 1.0165q5.7141 0 8.7971-1.7609a9.352 9.352 0 0 0 4.287-5.0571 26.9986 26.9986 0 0 0 1.2064-9.0128v-37.9969h13.405v38.3483c0 1.6378-.0642 3.2832-.1874 4.9236q-.1693 2.4642-.4415 4.8362-.72 3.9545-5.152 9.8959-4.4513 5.93-22.007 5.9349-17.8473 0-22.01-5.5011c-2.7647-3.658-4.364-6.1865-4.749-7.5573q-.4719-1.6378-.8471-3.3012a13.3188 13.3188 0 0 1 -.27-2.8186v-6.4124" fill="#000105" fill-rule="evenodd"/></svg>